<svg width="100" height="115" viewBox="0 0 100 115" fill="none" xmlns="http://www.w3.org/2000/svg">
<path d="M50 103.327C39.686 103.327 29.7945 99.3164 22.5014 92.1773C15.2083 85.0382 11.1111 75.3555 11.1111 65.2593C11.1111 55.163 15.2083 45.4803 22.5014 38.3412C29.7945 31.2021 39.686 27.1914 50 27.1914C60.314 27.1914 70.2055 31.2021 77.4986 38.3412C84.7917 45.4803 88.8889 55.163 88.8889 65.2593C88.8889 75.3555 84.7917 85.0382 77.4986 92.1773C70.2055 99.3164 60.314 103.327 50 103.327ZM89.0556 34.7506L96.9444 27.0282C94.4444 24.2547 91.9444 21.7531 89.1111 19.3602L81.2222 27.1914C72.6111 20.3391 61.7778 16.3148 50 16.3148C36.7392 16.3148 24.0215 21.4714 14.6447 30.6503C5.26784 39.8292 0 52.2784 0 65.2593C0 78.2401 5.26784 90.6893 14.6447 99.8682C24.0215 109.047 36.7392 114.204 50 114.204C77.7778 114.204 100 92.2875 100 65.2593C100 53.7301 95.8889 43.1255 89.0556 34.7506ZM44.4444 70.6975H55.5556V38.0679H44.4444M66.6667 0H33.3333V10.8765H66.6667V0Z" fill="#3F2883"/>
</svg>
