<?xml version="1.0" encoding="utf-8"?>
<!-- Generator: Adobe Illustrator 27.5.0, SVG Export Plug-In . SVG Version: 6.00 Build 0)  -->
<svg version="1.1" xmlns="http://www.w3.org/2000/svg" xmlns:xlink="http://www.w3.org/1999/xlink" x="0px" y="0px"
	 viewBox="0 0 500 500" style="enable-background:new 0 0 500 500;" xml:space="preserve">
<g id="Background_Complete">
	<g>
		<g>
			<rect y="382.398" style="fill:#EBEBEB;" width="500" height="0.25"/>
			<path style="fill:#EBEBEB;" d="M237.014,337.8H43.915c-3.147,0-5.708-2.561-5.708-5.708V60.66c0-3.147,2.561-5.708,5.708-5.708
				h193.099c3.146,0,5.707,2.561,5.707,5.708v271.432C242.721,335.239,240.16,337.8,237.014,337.8z M43.915,55.203
				c-3.01,0-5.458,2.448-5.458,5.458v271.432c0,3.01,2.448,5.458,5.458,5.458h193.099c3.009,0,5.457-2.448,5.457-5.458V60.66
				c0-3.009-2.448-5.458-5.457-5.458H43.915z"/>
			<path style="fill:#EBEBEB;" d="M453.31,337.8H260.212c-3.147,0-5.707-2.561-5.707-5.708V60.66c0-3.147,2.561-5.708,5.707-5.708
				H453.31c3.148,0,5.708,2.561,5.708,5.708v271.432C459.019,335.239,456.458,337.8,453.31,337.8z M260.212,55.203
				c-3.009,0-5.457,2.448-5.457,5.458v271.432c0,3.01,2.448,5.458,5.457,5.458H453.31c3.01,0,5.458-2.448,5.458-5.458V60.66
				c0-3.009-2.448-5.458-5.458-5.458H260.212z"/>
		</g>
		<g>
			<rect x="174.438" y="391.922" style="fill:#EBEBEB;" width="25.997" height="0.25"/>
			<rect x="52.459" y="389.208" style="fill:#EBEBEB;" width="54.101" height="0.25"/>
			<rect x="147.119" y="401.208" style="fill:#EBEBEB;" width="26.317" height="0.25"/>
			<rect x="258.227" y="399.528" style="fill:#EBEBEB;" width="38.832" height="0.25"/>
			<rect x="305.962" y="399.528" style="fill:#EBEBEB;" width="10.694" height="0.25"/>
			<rect x="395.346" y="395.306" style="fill:#EBEBEB;" width="54.556" height="0.25"/>
		</g>
	</g>
	<g>
		<g>
			<g>
				<rect x="76.923" y="91.251" style="fill:#E6E6E6;" width="148.384" height="156.582"/>
				<path style="fill:#E6E6E6;" d="M241.208,86.183H67.318c-0.813,0-1.473,0.66-1.473,1.473l0,0c0,0.813,0.66,1.473,1.473,1.473
					h173.891c0.814,0,1.473-0.66,1.473-1.473l0,0C242.682,86.843,242.022,86.183,241.208,86.183z"/>
				<rect x="79.865" y="91.251" style="fill:#F0F0F0;" width="151.738" height="156.582"/>
				<rect x="76.923" y="247.832" style="fill:#E6E6E6;" width="148.384" height="5.85"/>
				<rect x="90.354" y="247.832" style="fill:#F0F0F0;" width="151.738" height="5.85"/>
				
					<rect x="86.258" y="102.487" transform="matrix(-1.836970e-16 1 -1 -1.836970e-16 325.2757 13.8076)" style="fill:#FAFAFA;" width="138.952" height="134.109"/>
				<polygon style="fill:#FFFFFF;" points="119.124,239.018 170.86,100.065 195.282,100.065 143.546,239.018 				"/>
				<polygon style="fill:#FFFFFF;" points="148.792,239.018 200.528,100.065 210.05,100.065 158.314,239.018 				"/>
				
					<rect x="152.752" y="168.982" transform="matrix(-1.836970e-16 1 -1 -1.836970e-16 391.7704 -52.687)" style="fill:#E6E6E6;" width="138.952" height="1.119"/>
			</g>
			<g style="opacity:0.6;">
				<polygon style="fill:#F0F0F0;" points="85.04,224.98 66.407,224.98 76.45,83.547 95.082,83.547 				"/>
				<polygon style="fill:#E6E6E6;" points="92.298,224.98 77.782,224.98 87.824,83.547 102.34,83.547 				"/>
				<polygon style="fill:#F0F0F0;" points="103.672,224.98 85.04,224.98 95.082,83.547 113.714,83.547 				"/>
				<polygon style="fill:#E6E6E6;" points="110.93,224.98 96.414,224.98 106.456,83.547 120.972,83.547 				"/>
				<polygon style="fill:#F0F0F0;" points="122.304,224.98 103.672,224.98 113.714,83.547 132.347,83.547 				"/>
			</g>
			<g style="opacity:0.6;">
				<polygon style="fill:#F0F0F0;" points="228.532,224.98 239.061,224.98 233.386,83.548 222.856,83.548 				"/>
				<polygon style="fill:#E6E6E6;" points="224.43,224.98 232.633,224.98 226.958,83.548 218.755,83.548 				"/>
				<polygon style="fill:#F0F0F0;" points="218.002,224.98 228.532,224.98 222.856,83.548 212.327,83.548 				"/>
				<polygon style="fill:#E6E6E6;" points="213.9,224.98 222.104,224.98 216.428,83.548 208.225,83.548 				"/>
				<polygon style="fill:#F0F0F0;" points="207.472,224.98 218.002,224.98 212.327,83.548 201.797,83.548 				"/>
			</g>
		</g>
		<g>
			<g>
				<rect x="324.048" y="83.547" style="fill:#E6E6E6;" width="102.607" height="136.421"/>
				<rect x="327.251" y="83.547" style="fill:#F5F5F5;" width="107.199" height="136.421"/>
				
					<rect x="321.618" y="107.14" transform="matrix(0.0806 -0.9967 0.9967 0.0806 198.8954 519.1425)" style="fill:#FFFFFF;" width="118.46" height="89.24"/>
				
					<rect x="364.998" y="154.168" transform="matrix(0.0806 -0.9967 0.9967 0.0806 235.2777 565.602)" style="fill:#E6E6E6;" width="118.46" height="2.198"/>
			</g>
		</g>
		<g>
			<g>
				<rect x="382.796" y="270.926" style="fill:#F5F5F5;" width="57.308" height="111.472"/>
				<rect x="435.378" y="270.926" style="fill:#F0F0F0;" width="4.726" height="111.472"/>
				
					<rect x="255.254" y="274.107" transform="matrix(-1 -1.224647e-16 1.224647e-16 -1 642.466 595.3806)" style="fill:#E6E6E6;" width="131.958" height="47.167"/>
				
					<rect x="261.616" y="270.926" transform="matrix(-1 -1.224647e-16 1.224647e-16 -1 701.7197 550.2131)" style="fill:#F0F0F0;" width="178.488" height="8.361"/>
				<rect x="204.307" y="270.926" style="fill:#F5F5F5;" width="57.308" height="111.472"/>
				<path style="fill:#E6E6E6;" d="M220.429,382.398H192.59v-62.164c0-7.616,6.174-13.79,13.79-13.79h0.259
					c7.616,0,13.79,6.174,13.79,13.79V382.398z"/>
				<rect x="256.89" y="270.926" style="fill:#F0F0F0;" width="4.726" height="111.472"/>
			</g>
			<g>
				<polygon style="fill:#F0F0F0;" points="326.121,270.926 313.757,270.926 316.765,246.862 329.129,246.862 				"/>
				<polygon style="fill:#F5F5F5;" points="328.855,270.926 316.491,270.926 319.499,246.862 331.863,246.862 				"/>
				<polygon style="fill:#F0F0F0;" points="330.359,258.894 317.995,258.894 319.499,246.862 331.863,246.862 				"/>
				<path style="fill:#F0F0F0;" d="M284.927,256.013h87.46c0.729,0,1.294-0.639,1.203-1.363l-6.74-53.922
					c-0.076-0.607-0.592-1.062-1.203-1.062h-87.46c-0.729,0-1.294,0.639-1.203,1.363l6.74,53.922
					C283.8,255.558,284.316,256.013,284.927,256.013z"/>
				<path style="fill:#F5F5F5;" d="M286.227,256.013h87.46c0.729,0,1.294-0.639,1.203-1.363l-6.74-53.922
					c-0.076-0.607-0.592-1.062-1.203-1.062h-87.46c-0.729,0-1.294,0.639-1.203,1.363l6.74,53.922
					C285.099,255.558,285.615,256.013,286.227,256.013z"/>
				<path style="fill:#E6E6E6;" d="M372.069,253.033l-6.309-50.471c-0.021-0.17-0.165-0.297-0.336-0.297h-83.983
					c-0.204,0-0.362,0.179-0.336,0.381l6.309,50.471c0.021,0.17,0.165,0.297,0.336,0.297h83.982
					C371.936,253.414,372.094,253.236,372.069,253.033z"/>
				<polygon style="fill:#EBEBEB;" points="363.107,253.416 340.908,202.267 321.443,202.267 343.643,253.416 				"/>
				<polygon style="fill:#EBEBEB;" points="339.894,253.416 317.695,202.267 310.68,202.267 332.88,253.416 				"/>
				<path style="fill:#F5F5F5;" d="M321.974,268.671h16.128c1.108,0,2.005,0.898,2.005,2.006v0.25h-20.138v-0.25
					C319.969,269.569,320.867,268.671,321.974,268.671z"/>
				<path style="fill:#F0F0F0;" d="M310.644,268.671h9.65c1.108,0,2.005,0.898,2.005,2.006v0.25h-13.661v-0.25
					C308.639,269.569,309.536,268.671,310.644,268.671z"/>
			</g>
			<g>
				<polygon style="fill:#F5F5F5;" points="362.363,270.927 300.099,270.927 298.416,265.93 354.262,265.93 				"/>
				<polygon style="fill:#F0F0F0;" points="306.95,270.927 296.664,270.927 295.272,265.93 305.558,265.93 				"/>
			</g>
			<path style="fill:#F0F0F0;" d="M273.593,266.746h9.361c2.309,0,4.18,1.871,4.18,4.18v0h-17.722v0
				C269.413,268.617,271.285,266.746,273.593,266.746z"/>
		</g>
		<g>
			
				<rect x="89.228" y="301.667" transform="matrix(-1 -1.224647e-16 1.224647e-16 -1 195.8246 684.0651)" style="fill:#E0E0E0;" width="17.369" height="80.732"/>
			<polygon style="fill:#E6E6E6;" points="166.344,382.398 96.119,382.398 87.437,287 157.661,287 			"/>
			<polygon style="fill:#F0F0F0;" points="169.982,382.398 99.757,382.398 91.074,287 161.299,287 			"/>
			<polygon style="fill:#FFFFFF;" points="109.356,371.838 102.595,297.56 151.698,297.56 158.459,371.838 			"/>
		</g>
	</g>
</g>
<g id="Background_Simple" style="display:none;">
	<g style="display:inline;">
		<path style="fill:#407BFF;" d="M350.076,175.25c-4.132,34.98,20.946,88.69-22.298,107.608
			c-36.265,15.865-66.57-7.089-96.071,24.654c-21.498,23.132-58.766,60.532-86.9,21.779
			c-22.003-30.309-23.137-75.547-12.508-109.864c8.348-26.954,35.423-82.375,70.688-87.023c39.631-5.224,64.747,46.751,86.498-5.701
			c13.091-31.568,40.719-68.872,83.806-43.216c17.006,10.126,12.111,22.685,3.103,35.757
			C363.099,138.537,352.918,151.188,350.076,175.25z"/>
		<path style="opacity:0.9;fill:#FFFFFF;" d="M350.076,175.25c-4.132,34.98,20.946,88.69-22.298,107.608
			c-36.265,15.865-66.57-7.089-96.071,24.654c-21.498,23.132-58.766,60.532-86.9,21.779
			c-22.003-30.309-23.137-75.547-12.508-109.864c8.348-26.954,35.423-82.375,70.688-87.023c39.631-5.224,64.747,46.751,86.498-5.701
			c13.091-31.568,40.719-68.872,83.806-43.216c17.006,10.126,12.111,22.685,3.103,35.757
			C363.099,138.537,352.918,151.188,350.076,175.25z"/>
	</g>
</g>
<g id="Shadow_1_">
	<ellipse id="_x3C_Path_x3E__54_" style="fill:#F5F5F5;" cx="250" cy="416.238" rx="193.889" ry="11.323"/>
</g>
<g id="Upload_Window">
	<g>
		<g>
			<g>
				
					<rect x="98.297" y="177.005" transform="matrix(0.9995 -0.0327 0.0327 0.9995 -5.9472 3.3254)" style="fill:#407BFF;" width="1.001" height="13.332"/>
				
					<rect x="97.807" y="165.513" transform="matrix(0.9995 -0.0327 0.0327 0.9995 -5.4589 3.3021)" style="fill:#407BFF;" width="1.001" height="6.335"/>
				<path style="fill:#407BFF;" d="M112.199,261.869h190.862c4.317,0,7.734-3.532,7.593-7.849l-4.249-130.234
					c-0.141-4.317-3.788-7.849-8.105-7.849H107.437c-4.317,0-7.734,3.532-7.593,7.849l4.249,130.234
					C104.234,258.337,107.882,261.869,112.199,261.869z"/>
				<g>
					<g>
						<path style="fill:#407BFF;" d="M112.811,261.869h190.862c4.317,0,7.734-3.532,7.593-7.849l-4.25-130.234
							c-0.141-4.317-3.788-7.849-8.105-7.849H108.049c-4.317,0-7.734,3.532-7.593,7.849l4.249,130.234
							C104.846,258.337,108.494,261.869,112.811,261.869z"/>
						<path style="opacity:0.5;fill:#FFFFFF;" d="M112.811,261.869h190.862c4.317,0,7.734-3.532,7.593-7.849l-4.25-130.234
							c-0.141-4.317-3.788-7.849-8.105-7.849H108.049c-4.317,0-7.734,3.532-7.593,7.849l4.249,130.234
							C104.846,258.337,108.494,261.869,112.811,261.869z"/>
					</g>
					<path style="opacity:0.5;fill:#407BFF;" d="M298.427,119.861H107.565c-0.216,0-0.429,0.009-0.64,0.026
						c-4.895,0.402-4.19,7.823,0.734,7.823h191.188c4.924,0,5.144-7.421,0.223-7.823
						C298.857,119.87,298.643,119.861,298.427,119.861z"/>
					<path style="fill:#FAFAFA;" d="M112.381,123.785c0.032,0.994-0.747,1.799-1.741,1.799c-0.994,0-1.826-0.806-1.858-1.799
						c-0.032-0.994,0.747-1.799,1.741-1.799C111.517,121.986,112.349,122.792,112.381,123.785z"/>
					<path style="fill:#FAFAFA;" d="M118.502,123.785c0.033,0.994-0.747,1.799-1.741,1.799c-0.994,0-1.826-0.806-1.858-1.799
						s0.747-1.799,1.741-1.799C117.638,121.986,118.47,122.792,118.502,123.785z"/>
					<path style="fill:#FAFAFA;" d="M124.623,123.785c0.032,0.994-0.747,1.799-1.741,1.799c-0.994,0-1.826-0.806-1.858-1.799
						c-0.032-0.994,0.747-1.799,1.741-1.799C123.758,121.986,124.59,122.792,124.623,123.785z"/>
				</g>
				<path style="fill:#FFFFFF;" d="M116.511,248.87h182.614c1.572,0,2.804-1.274,2.753-2.845l-3.495-107.101
					c-0.051-1.572-1.367-2.845-2.938-2.845H112.83c-1.571,0-2.804,1.274-2.753,2.845l3.495,107.101
					C113.624,247.596,114.939,248.87,116.511,248.87z"/>
				<g style="opacity:0.3;">
					<polygon style="fill:#407BFF;" points="250.526,235.616 247.193,235.616 247.193,234.668 249.548,234.668 249.472,232.315 
						250.419,232.284 					"/>
					<path style="fill:#407BFF;" d="M241.883,235.616h-5.31v-0.948h5.31V235.616z M231.264,235.616h-5.311v-0.948h5.311V235.616z
						 M220.644,235.616h-5.31v-0.948h5.31V235.616z M210.024,235.616h-5.31v-0.948h5.31V235.616z M199.405,235.616h-5.311v-0.948
						h5.311V235.616z M188.785,235.616h-5.31v-0.948h5.31V235.616z M178.166,235.616h-5.31v-0.948h5.31V235.616z"/>
					<polygon style="fill:#407BFF;" points="167.547,235.616 164.243,235.616 164.136,232.315 165.083,232.284 165.161,234.668 
						167.547,234.668 					"/>
					<path style="fill:#407BFF;" d="M163.963,227.005l-0.173-5.31l0.947-0.031l0.173,5.31L163.963,227.005z M163.616,216.385
						l-0.173-5.31l0.947-0.031l0.173,5.31L163.616,216.385z M163.27,205.765l-0.173-5.31l0.947-0.031l0.173,5.31L163.27,205.765z
						 M162.924,195.145l-0.174-5.31l0.947-0.031l0.174,5.31L162.924,195.145z M162.577,184.525l-0.174-5.31l0.947-0.031l0.174,5.31
						L162.577,184.525z M162.23,173.905l-0.173-5.31l0.947-0.031l0.173,5.31L162.23,173.905z M161.884,163.285l-0.173-5.31
						l0.947-0.031l0.173,5.31L161.884,163.285z"/>
					<polygon style="fill:#407BFF;" points="161.537,152.665 161.428,149.333 164.762,149.333 164.762,150.281 162.408,150.281 
						162.484,152.635 					"/>
					<path style="fill:#407BFF;" d="M239.099,150.281h-5.31v-0.948h5.31V150.281z M228.48,150.281h-5.31v-0.948h5.31V150.281z
						 M217.86,150.281h-5.311v-0.948h5.311V150.281z M207.24,150.281h-5.31v-0.948h5.31V150.281z M196.621,150.281h-5.31v-0.948
						h5.31V150.281z M186.002,150.281h-5.311v-0.948h5.311V150.281z M175.382,150.281h-5.31v-0.948h5.31V150.281z"/>
					<polygon style="fill:#407BFF;" points="246.872,152.665 246.794,150.281 244.408,150.281 244.408,149.333 247.712,149.333 
						247.819,152.635 					"/>
					<path style="fill:#407BFF;" d="M249.298,227.005l-0.173-5.31l0.947-0.031l0.173,5.31L249.298,227.005z M248.951,216.385
						l-0.173-5.31l0.947-0.031l0.173,5.31L248.951,216.385z M248.605,205.765l-0.174-5.31l0.947-0.031l0.174,5.31L248.605,205.765z
						 M248.259,195.145l-0.174-5.31l0.947-0.031l0.174,5.31L248.259,195.145z M247.912,184.525l-0.173-5.31l0.947-0.031l0.173,5.31
						L247.912,184.525z M247.565,173.905l-0.173-5.31l0.947-0.031l0.173,5.31L247.565,173.905z M247.219,163.285l-0.173-5.31
						l0.947-0.031l0.173,5.31L247.219,163.285z"/>
				</g>
			</g>
		</g>
		<g>
			<path style="fill:#407BFF;" d="M224.822,206.015h-34.911c-6.672,0-12.276-5.427-12.495-12.099
				c-0.198-6.103,4.181-11.238,10.111-12.058c1.519-5.884,6.88-10.069,13.07-10.069c5.008,0,9.604,2.618,12.223,6.896
				c1.092-0.336,2.229-0.505,3.392-0.505c6.134,0,11.365,4.794,11.999,10.831c3.089,1.47,5.188,4.605,5.3,8.023
				c0.078,2.397-0.784,4.652-2.428,6.35C229.44,205.081,227.217,206.015,224.822,206.015z M200.598,174.121
				c-5.368,0-9.982,3.797-10.971,9.029l-0.168,0.888l-0.902,0.058c-5.107,0.329-8.977,4.609-8.811,9.745
				c0.178,5.428,4.737,9.844,10.165,9.844h34.911c1.758,0,3.386-0.682,4.585-1.921c1.201-1.24,1.831-2.893,1.773-4.653
				c-0.09-2.739-1.895-5.237-4.491-6.215l-0.722-0.272l-0.032-0.771c-0.211-5.151-4.573-9.341-9.724-9.341
				c-1.208,0-2.38,0.229-3.481,0.68l-0.983,0.403l-0.491-0.942C209.155,176.623,205.071,174.121,200.598,174.121z"/>
			<polygon style="fill:#407BFF;" points="214.762,194.68 205.133,185.355 196.113,194.68 201.391,194.68 201.706,204.321 
				209.798,204.321 209.484,194.68 			"/>
		</g>
	</g>
</g>
<g id="Character_1_">
	<g>
		<path style="fill:#FFB573;" d="M366.945,156.802c0.925,1.325,1.663,2.446,2.427,3.688c0.761,1.212,1.478,2.442,2.175,3.686
			c1.401,2.483,2.703,5.024,3.897,7.643c1.188,2.618,2.312,5.289,3.24,8.081c0.972,2.76,1.763,5.661,2.354,8.652l0.387,2.281
			l0.047,0.285l0.054,0.365c0.039,0.349,0.084,0.65,0.098,1.04c0.014,0.385,0.031,0.735,0.002,1.178l-0.046,0.632l-0.106,0.696
			c-0.067,0.442-0.225,0.981-0.379,1.458c-0.199,0.52-0.402,1.019-0.704,1.521c-0.562,1.001-1.381,1.892-2.207,2.524
			c-1.714,1.306-3.259,1.68-4.509,1.917c-1.266,0.213-2.297,0.208-3.262,0.164c-0.957-0.053-1.829-0.157-2.655-0.314
			c-1.645-0.309-3.138-0.718-4.572-1.173c-2.856-0.936-5.49-2.054-8.04-3.298c-2.559-1.252-4.978-2.573-7.412-4.137l2.875-6.382
			c5.054,1.242,10.276,2.605,15.083,3.262c1.192,0.171,2.353,0.276,3.389,0.287c0.999,0.02,1.986-0.088,2.148-0.239
			c0.061-0.047-0.165-0.118-0.83,0.323c-0.3,0.213-0.664,0.586-0.909,0.99c-0.118,0.218-0.223,0.389-0.288,0.6
			c-0.078,0.149-0.114,0.369-0.151,0.473l-0.06,0.322c-0.002,0.105-0.023,0.119-0.023,0.167c0.004,0.052-0.024,0.021-0.023,0.036
			c0.006,0.033-0.02-0.066-0.039-0.133l-0.057-0.21l-0.451-1.681c-1.338-4.506-3.311-9.103-5.616-13.591
			c-1.128-2.255-2.367-4.483-3.629-6.696c-0.628-1.108-1.286-2.202-1.935-3.292c-0.642-1.062-1.345-2.224-1.929-3.139
			L366.945,156.802z"/>
		<path style="fill:#FFB573;" d="M351.785,187.811l-4.335-4.323l-4.315,9.614c0,0,4.08,2.264,7.719,0.613L351.785,187.811z"/>
		<polygon style="fill:#FFB573;" points="341.036,180.044 337.842,188.158 343.135,193.102 347.45,183.487 		"/>
		<g>
			<g>
				
					<rect x="264.446" y="152.047" transform="matrix(0.9848 0.1735 -0.1735 0.9848 38.3637 -50.266)" style="fill:#407BFF;" width="84.541" height="84.541"/>
				
					<rect x="264.446" y="152.047" transform="matrix(0.9848 0.1735 -0.1735 0.9848 38.3637 -50.266)" style="opacity:0.6;fill:#FFFFFF;" width="84.541" height="84.541"/>
			</g>
			
				<rect x="268.56" y="156.161" transform="matrix(0.9848 0.1735 -0.1735 0.9848 38.3638 -50.2661)" style="fill:#FFFFFF;" width="76.314" height="76.314"/>
			
				<ellipse transform="matrix(0.8191 -0.5737 0.5737 0.8191 -46.6948 205.8751)" style="opacity:0.3;fill:#407BFF;" cx="303.037" cy="176.965" rx="14.087" ry="14.087"/>
			<polygon style="opacity:0.2;fill:#407BFF;" points="320.663,197.481 295.473,215.116 283.888,198.577 264.881,211.891 
				262.524,225.275 337.671,238.513 340.029,225.129 			"/>
		</g>
		<path style="fill:#263238;" d="M324.794,126.514c0.014,0.665-0.327,1.212-0.762,1.221c-0.435,0.009-0.799-0.523-0.813-1.188
			c-0.014-0.665,0.327-1.212,0.762-1.221C324.416,125.317,324.78,125.849,324.794,126.514z"/>
		<path style="fill:#FF5652;" d="M324.528,127.725c0,0-1.433,3.87-3.059,5.756c1.2,1.074,3.191,0.53,3.191,0.53L324.528,127.725z"/>
		<path style="fill:#263238;" d="M327.135,122.772c-0.098,0.017-0.202-0.002-0.29-0.063c-1.42-0.979-2.734-0.475-2.789-0.451
			c-0.198,0.08-0.427-0.017-0.508-0.216c-0.081-0.2,0.014-0.426,0.213-0.507c0.07-0.029,1.747-0.695,3.527,0.531
			c0.178,0.123,0.223,0.366,0.1,0.544C327.327,122.699,327.234,122.755,327.135,122.772z"/>
		<path style="fill:#FFB573;" d="M344.069,129.052c-0.422,6.136,0.061,18.532,4.753,22.001c0,0-1.15,5.004-12.277,6.402
			c-12.236,1.537-6.611-5.339-6.611-5.339c6.478-2.434,5.683-7.367,3.935-11.874L344.069,129.052z"/>
		<path style="fill:#407BFF;" d="M374.394,394.572c-0.027-0.009-0.053-0.02-0.078-0.032c-0.198-0.095-0.431-0.315-0.417-0.828
			c0.008-0.27,0.122-0.501,0.339-0.685c0.942-0.801,3.682-0.449,3.798-0.434c0.078,0.012,0.14,0.064,0.162,0.138
			c0.022,0.074-0.002,0.154-0.06,0.204C377.498,393.484,375.379,394.913,374.394,394.572z M377.515,392.932
			c-0.927-0.074-2.464-0.084-3.024,0.392c-0.131,0.111-0.197,0.242-0.202,0.399c-0.011,0.366,0.143,0.44,0.194,0.464
			C375.013,394.442,376.513,393.678,377.515,392.932z"/>
		<path style="fill:#407BFF;" d="M376.628,392.679c-0.961-0.332-1.978-0.895-2.149-1.476c-0.048-0.163-0.07-0.475,0.32-0.74
			c0.252-0.171,0.54-0.223,0.855-0.155c1.206,0.255,2.47,2.29,2.523,2.376c0.038,0.061,0.038,0.138,0.003,0.2
			c-0.036,0.062-0.103,0.1-0.174,0.098C377.663,392.973,377.154,392.861,376.628,392.679z M375.707,390.727
			c-0.045-0.016-0.09-0.028-0.135-0.038c-0.21-0.045-0.391-0.013-0.554,0.097c-0.212,0.143-0.178,0.257-0.164,0.306
			c0.156,0.531,1.715,1.267,2.763,1.455C377.238,392.005,376.447,390.983,375.707,390.727z"/>
		<path style="fill:#407BFF;" d="M313.667,408.238c-1.058,0-2.081-0.146-2.423-0.622c-0.12-0.167-0.215-0.45,0.016-0.854
			c0.129-0.226,0.338-0.38,0.62-0.457c1.374-0.374,4.256,1.269,4.378,1.34c0.071,0.041,0.108,0.121,0.095,0.201
			c-0.013,0.08-0.075,0.144-0.155,0.16C315.672,408.111,314.654,408.238,313.667,408.238z M312.359,406.637
			c-0.137,0-0.264,0.014-0.378,0.045c-0.18,0.049-0.306,0.138-0.383,0.274c-0.138,0.242-0.088,0.362-0.038,0.432
			c0.384,0.532,2.47,0.544,4.004,0.328C314.799,407.324,313.323,406.637,312.359,406.637z"/>
		<path style="fill:#407BFF;" d="M316.16,408.009c-0.027,0-0.055-0.005-0.08-0.017c-0.996-0.447-2.968-2.231-2.818-3.164
			c0.036-0.219,0.191-0.491,0.728-0.546c0.398-0.037,0.764,0.073,1.084,0.336c1.049,0.861,1.272,3.084,1.28,3.178
			c0.007,0.07-0.024,0.137-0.081,0.178C316.24,407.997,316.2,408.009,316.16,408.009z M314.147,404.665
			c-0.038,0-0.078,0.002-0.117,0.007c-0.351,0.036-0.374,0.174-0.381,0.219c-0.091,0.56,1.25,1.962,2.266,2.572
			c-0.106-0.649-0.4-1.979-1.089-2.544C314.618,404.749,314.395,404.665,314.147,404.665z"/>
		<polygon style="fill:#FFB573;" points="325.232,407.814 316.982,407.814 316.16,388.708 324.41,388.708 		"/>
		<polygon style="fill:#FFB573;" points="386.92,390.392 379.27,392.495 369.476,374.581 377.126,372.478 		"/>
		<path style="fill:#263238;" d="M378.124,391.656l8.252-4.221c0.3-0.154,0.667-0.078,0.882,0.182l4.791,5.786
			c0.497,0.6,0.292,1.513-0.407,1.856c-2.906,1.424-4.392,1.971-8.021,3.828c-2.233,1.142-8.872,6.08-12.223,6.953
			c-3.277,0.854-4.652-2.326-3.358-2.984c5.801-2.949,8.145-7.783,9.124-10.338C377.34,392.257,377.685,391.88,378.124,391.656z"/>
		<path style="fill:#263238;" d="M317.036,406.859h9.01c0.337,0,0.629,0.234,0.703,0.564l1.63,7.333
			c0.169,0.76-0.408,1.481-1.187,1.467c-3.25-0.055-7.946-0.246-12.031-0.246c-4.776,0-8.902,0.26-14.503,0.26
			c-3.387,0-4.327-3.424-2.909-3.734c6.454-1.412,11.724-1.563,17.301-5.002C315.655,407.128,316.324,406.859,317.036,406.859z"/>
		<path style="fill:#263238;" d="M352.485,166.327c0.86,2.217,1.807,4.378,2.762,6.404c1.645,3.505,3.283,6.567,4.475,8.683
			c1.062,1.905,1.756,3.033,1.756,3.033l18.021-8.938c0,0-7.261-20.873-14.841-23.195
			C356.89,149.954,348.594,156.376,352.485,166.327z"/>
		<path style="opacity:0.2;" d="M360.471,168.39c-1.57,1.154-2.69,4.26-3.487,7.908c1.028,2.009,1.974,3.752,2.736,5.114
			c1.062,1.906,1.755,3.036,1.755,3.036l2.067-1.027C363.403,178.595,362.63,173.158,360.471,168.39z"/>
		<path style="fill:#263238;" d="M314.379,179.637c0,2.807,0.067,5.896,0.225,9.299c0.404,9.254,1.415,20.787,3.347,35.117h44.124
			c0.303-6.772-3.953-39.823,2.583-71.739c0,0-7.569-1.516-14.779-1.864c-5.638-0.27-13.802-0.449-18.755,0
			c-6.536,0.606-12.69,2.291-12.69,2.291S314.368,157.334,314.379,179.637z"/>
		<path style="fill:#FFB573;" d="M325.729,166.538c-0.783,1.642-1.454,2.805-2.194,4.006c-0.728,1.18-1.46,2.313-2.227,3.412
			c-1.516,2.209-3.11,4.323-4.778,6.389c-3.344,4.123-6.953,8.053-11.134,11.68c-2.083,1.823-4.347,3.539-6.903,5.106l-0.984,0.574
			l-0.257,0.146l-0.362,0.181l-0.728,0.35c-0.977,0.422-1.966,0.753-2.94,0.948c-1.948,0.402-3.781,0.427-5.466,0.278
			c-3.374-0.356-6.197-1.39-8.785-2.628c-1.285-0.642-2.512-1.325-3.675-2.097c-1.192-0.769-2.231-1.558-3.406-2.553l3.543-6.037
			c4.324,1.133,9.211,2.153,12.566,1.674c0.819-0.1,1.507-0.304,1.981-0.553c0.237-0.129,0.423-0.247,0.574-0.37
			c0.032-0.035,0.066-0.067,0.1-0.097l0.052-0.042l0.143-0.102l0.607-0.427c1.628-1.198,3.258-2.664,4.862-4.235
			c3.194-3.171,6.229-6.795,9.091-10.54c1.43-1.875,2.816-3.796,4.14-5.718c0.655-0.965,1.302-1.926,1.902-2.872
			c0.584-0.926,1.196-1.921,1.513-2.533L325.729,166.538z"/>
		<path style="fill:#FFB573;" d="M277.219,187.179l-7.609-3.608l-0.687,10.205c0,0,5.914,1.024,9.045-1.286L277.219,187.179z"/>
		<polygon style="fill:#FFB573;" points="260.018,185.307 262.95,193.086 268.923,193.777 269.61,183.572 		"/>
		<path style="fill:#263238;" d="M331.182,161.133c-0.26,7.883-16.497,26.048-16.497,26.048l-17.157-11.205
			c0,0,5.44-10.176,12.503-17.541C320.686,147.326,331.494,151.671,331.182,161.133z"/>
		<g>
			<polygon style="opacity:0.2;" points="316.162,388.714 316.584,398.562 324.838,398.562 324.416,388.714 			"/>
			<polygon style="opacity:0.2;" points="377.13,372.483 369.477,374.586 374.53,383.819 382.182,381.715 			"/>
		</g>
		<path style="fill:#FFB573;" d="M346.955,124.641c-0.331,8.181-0.109,12.986-4.148,17.266c-6.076,6.438-16.24,2.907-18.359-5.209
			c-1.908-7.305-1.046-19.457,6.884-22.875C339.144,110.455,347.286,116.459,346.955,124.641z"/>
		<path style="fill:#263238;" d="M330.667,128.54c-2.944-2.095-5.833-6.429-5.611-9.651c-2.722-0.111-4.556-4.611-3.056-7.889
			c0.944,2.111,4.193,0.556,5.457-1.111c-0.68-1.611-0.569-4.278,4.098-6.167c-0.389,1.361-0.185,3.646,4.5,2
			c5.694-2,15.699-0.667,12.766,6.111c4.012,0.722,9.207,8.994,4.789,13.35c-4.417,4.356-5.333,11.373-9.111,12.095
			S330.889,138.246,330.667,128.54z"/>
		<path style="fill:#263238;" d="M346.163,111.563c2.625-1.201,6.857-0.686,9.137,2.568
			C352.195,112.861,350.419,112.035,346.163,111.563z"/>
		<path style="fill:#FFB573;" d="M332.824,128.191c-0.062,1.918-0.901,3.744-1.938,4.952c-1.56,1.817-3.269,0.76-3.613-1.391
			c-0.31-1.936,0.127-5.214,2.067-6.245C331.251,124.49,332.894,125.998,332.824,128.191z"/>
		<g>
			<path style="fill:#407BFF;" d="M333.599,224.054c0,0-3.893,62.429,3.486,85.448c11.688,36.462,32.521,73.706,32.521,73.706
				l14.901-4.481c0,0-16.386-39.316-21.776-70.03c-4.841-27.592-0.659-62.107-0.659-84.644
				C351.794,224.054,333.599,224.054,333.599,224.054z"/>
		</g>
		<path style="opacity:0.2;" d="M332.968,237.964c4.164-1.217,7.41-0.758,8.253,2.947c2.199,9.673-4.399,35.181-7.688,46.851
			C332.199,271.042,332.509,251.044,332.968,237.964z"/>
		<g>
			<path style="fill:#263238;" d="M365.4,378.937c-0.062,0.019,3.888,4.613,3.888,4.613l16.281-4.896l-2.069-5.509L365.4,378.937z"
				/>
		</g>
		<g>
			<path style="fill:#407BFF;" d="M317.945,224.054c0,0-12.427,52.671-13.302,77.831c-0.981,28.216,8.866,94.77,8.866,94.77h13.976
				c0,0,1.721-67.072,2.342-92.773c0.678-28.018,17.124-79.828,17.124-79.828H317.945z"/>
		</g>
		<g>
			<path style="fill:#263238;" d="M310.82,391.088c-0.065,0,0.788,5.802,0.788,5.802h17.001l0.46-5.178L310.82,391.088z"/>
		</g>
		<path style="fill:#407BFF;" d="M324.124,148.517c1.891-0.655,16.307-2.487,26.769-1.929c5.972,0.319,9.34,0.97,11.78,2.15
			c2.44,1.181-1.933,7.126-3.95,7.852c0.817,2.28-3.733,5.189-6.328,6.569c-1.039,2.145-11.261,4.124-17.267-0.481
			C330.516,159.144,318.727,150.387,324.124,148.517z"/>
	</g>
</g>
</svg>
