<svg width="64" height="64" viewBox="0 0 64 64" fill="none" xmlns="http://www.w3.org/2000/svg">
<path d="M10.4 0C7.64175 0 4.99647 1.09571 3.04609 3.04609C1.09571 4.99647 0 7.64175 0 10.4V47.2C0 49.9583 1.09571 52.6035 3.04609 54.5539C4.99647 56.5043 7.64175 57.6 10.4 57.6H28.8704C27.9113 56.104 27.1488 54.4907 26.6016 52.8H10.4C8.91479 52.8 7.49041 52.21 6.4402 51.1598C5.39 50.1096 4.8 48.6852 4.8 47.2V10.4C4.8 7.3088 7.3088 4.8 10.4 4.8H47.2C50.2912 4.8 52.8 7.3088 52.8 10.4V26.6016C54.4907 27.1488 56.104 27.9113 57.6 28.8704V10.4C57.6 7.64175 56.5043 4.99647 54.5539 3.04609C52.6035 1.09571 49.9583 0 47.2 0H10.4ZM46.4 25.6C46.8864 25.6 47.3664 25.616 47.8464 25.648C47.9844 25.2847 48.032 24.8933 47.9851 24.5075C47.9382 24.1217 47.7982 23.7531 47.5771 23.4334C47.356 23.1138 47.0605 22.8527 46.7161 22.6727C46.3717 22.4926 45.9886 22.3991 45.6 22.4H31.2C30.5635 22.4 29.953 22.6529 29.5029 23.1029C29.0529 23.553 28.8 24.1635 28.8 24.8C28.8 25.4365 29.0529 26.047 29.5029 26.4971C29.953 26.9471 30.5635 27.2 31.2 27.2H38.3872C40.9256 26.1405 43.6494 25.5966 46.4 25.6ZM12 9.6C11.3635 9.6 10.753 9.85286 10.3029 10.3029C9.85286 10.753 9.6 11.3635 9.6 12C9.6 12.6365 9.85286 13.247 10.3029 13.6971C10.753 14.1471 11.3635 14.4 12 14.4H45.6C46.2365 14.4 46.847 14.1471 47.2971 13.6971C47.7471 13.247 48 12.6365 48 12C48 11.3635 47.7471 10.753 47.2971 10.3029C46.847 9.85286 46.2365 9.6 45.6 9.6H12ZM9.6 24.8C9.6 23.8545 9.78623 22.9182 10.1481 22.0447C10.5099 21.1711 11.0402 20.3774 11.7088 19.7088C12.3774 19.0403 13.1711 18.5099 14.0447 18.1481C14.9182 17.7862 15.8545 17.6 16.8 17.6C17.7455 17.6 18.6818 17.7862 19.5553 18.1481C20.4289 18.5099 21.2226 19.0403 21.8912 19.7088C22.5597 20.3774 23.0901 21.1711 23.4519 22.0447C23.8138 22.9182 24 23.8545 24 24.8C24 26.7096 23.2414 28.5409 21.8912 29.8912C20.5409 31.2414 18.7096 32 16.8 32C14.8904 32 13.0591 31.2414 11.7088 29.8912C10.3586 28.5409 9.6 26.7096 9.6 24.8ZM16.8 22.4C16.1635 22.4 15.553 22.6529 15.1029 23.1029C14.6529 23.553 14.4 24.1635 14.4 24.8C14.4 25.4365 14.6529 26.047 15.1029 26.4971C15.553 26.9471 16.1635 27.2 16.8 27.2C17.4365 27.2 18.047 26.9471 18.4971 26.4971C18.9471 26.047 19.2 25.4365 19.2 24.8C19.2 24.1635 18.9471 23.553 18.4971 23.1029C18.047 22.6529 17.4365 22.4 16.8 22.4ZM16.8 35.2C14.8904 35.2 13.0591 35.9586 11.7088 37.3088C10.3586 38.6591 9.6 40.4904 9.6 42.4C9.6 44.3096 10.3586 46.1409 11.7088 47.4912C13.0591 48.8414 14.8904 49.6 16.8 49.6C18.7096 49.6 20.5409 48.8414 21.8912 47.4912C23.2414 46.1409 24 44.3096 24 42.4C24 40.4904 23.2414 38.6591 21.8912 37.3088C20.5409 35.9586 18.7096 35.2 16.8 35.2ZM14.4 42.4C14.4 41.7635 14.6529 41.153 15.1029 40.7029C15.553 40.2529 16.1635 40 16.8 40C17.4365 40 18.047 40.2529 18.4971 40.7029C18.9471 41.153 19.2 41.7635 19.2 42.4C19.2 43.0365 18.9471 43.647 18.4971 44.0971C18.047 44.5471 17.4365 44.8 16.8 44.8C16.1635 44.8 15.553 44.5471 15.1029 44.0971C14.6529 43.647 14.4 43.0365 14.4 42.4ZM64 46.4C64 41.7322 62.1457 37.2556 58.8451 33.9549C55.5444 30.6543 51.0678 28.8 46.4 28.8C41.7322 28.8 37.2556 30.6543 33.9549 33.9549C30.6543 37.2556 28.8 41.7322 28.8 46.4C28.8 51.0678 30.6543 55.5444 33.9549 58.8451C37.2556 62.1457 41.7322 64 46.4 64C51.0678 64 55.5444 62.1457 58.8451 58.8451C62.1457 55.5444 64 51.0678 64 46.4ZM48 48L48.0032 56.0096C48.0032 56.4339 47.8346 56.8409 47.5346 57.141C47.2345 57.441 46.8275 57.6096 46.4032 57.6096C45.9789 57.6096 45.5719 57.441 45.2718 57.141C44.9718 56.8409 44.8032 56.4339 44.8032 56.0096V48H36.7872C36.3629 48 35.9559 47.8314 35.6558 47.5314C35.3558 47.2313 35.1872 46.8243 35.1872 46.4C35.1872 45.9757 35.3558 45.5687 35.6558 45.2686C35.9559 44.9686 36.3629 44.8 36.7872 44.8H44.8V36.8C44.8 36.3757 44.9686 35.9687 45.2686 35.6686C45.5687 35.3686 45.9757 35.2 46.4 35.2C46.8243 35.2 47.2313 35.3686 47.5314 35.6686C47.8314 35.9687 48 36.3757 48 36.8V44.8H55.9904C56.4147 44.8 56.8217 44.9686 57.1218 45.2686C57.4218 45.5687 57.5904 45.9757 57.5904 46.4C57.5904 46.8243 57.4218 47.2313 57.1218 47.5314C56.8217 47.8314 56.4147 48 55.9904 48H48Z" fill="#5CDADA"/>
</svg>
