<svg width="142" height="40" viewBox="0 0 142 40" fill="none" xmlns="http://www.w3.org/2000/svg">
<path d="M47.7344 12.5074H50.075V2.09053H53.7915V0H44.0179V2.09053H47.7344V12.5074Z" fill="#201B24"/>
<path d="M57.1885 12.6861C59.2612 12.6861 60.8871 11.7034 61.3874 9.595H59.3505C59.0825 10.4884 58.4035 10.9351 57.2421 10.9351C55.777 10.9351 54.9014 10.1846 54.7585 8.45146H61.4589C61.4946 8.25491 61.5125 8.07624 61.5125 7.75462C61.5125 4.35974 59.5471 3.03752 57.1528 3.03752C54.7228 3.03752 52.5965 4.41334 52.5965 7.84396C52.5965 11.3103 54.7764 12.6861 57.1885 12.6861ZM54.7764 7.05777C54.9372 5.53901 55.777 4.78857 57.117 4.78857C58.6179 4.78857 59.2969 5.75343 59.3505 7.05777H54.7764Z" fill="#201B24"/>
<path d="M66.8826 12.6861C68.5264 12.6861 70.7599 11.9893 71.0458 9.00536H68.9731C68.7409 10.2382 67.9547 10.7564 66.8647 10.7564C65.2745 10.7564 64.399 9.63073 64.399 7.87969C64.399 6.12865 65.2745 4.96724 66.8647 4.96724C67.9189 4.96724 68.7409 5.44967 68.9731 6.70042H71.0458C70.7063 3.69863 68.5086 3.03752 66.8826 3.03752C64.5598 3.03752 62.2549 4.44908 62.2549 7.87969C62.2549 11.3103 64.5598 12.6861 66.8826 12.6861Z" fill="#201B24"/>
<path d="M78.5285 7.20072V12.5074H80.8156V6.66468C80.8156 4.14533 79.404 3.03752 77.5815 3.03752C75.616 3.03752 74.7227 4.324 74.544 5.12805H74.4725V0H72.1854V12.5074H74.4725V7.20072C74.4725 5.68195 75.3838 4.93151 76.6345 4.93151C77.8674 4.93151 78.5285 5.68195 78.5285 7.20072Z" fill="#201B24"/>
<path d="M88.7278 7.20072V12.5074H91.0148V6.66468C91.0148 4.14533 89.6033 3.03752 87.7808 3.03752C85.8153 3.03752 84.9219 4.324 84.7433 5.12805H84.6718V3.2162H82.3847V12.5074H84.6718V7.20072C84.6718 5.68195 85.583 4.93151 86.8338 4.93151C88.0667 4.93151 88.7278 5.68195 88.7278 7.20072Z" fill="#201B24"/>
<path d="M96.7472 12.6861C99.07 12.6861 101.357 11.221 101.357 7.86182C101.357 4.50268 99.07 3.03752 96.7472 3.03752C94.4065 3.03752 92.1373 4.50268 92.1373 7.86182C92.1373 11.221 94.4065 12.6861 96.7472 12.6861ZM94.2814 7.86182C94.2814 5.84276 95.3892 4.94938 96.7472 4.94938C98.0873 4.94938 99.1951 5.84276 99.1951 7.86182C99.1951 9.88088 98.0873 10.7743 96.7472 10.7743C95.3892 10.7743 94.2814 9.88088 94.2814 7.86182Z" fill="#201B24"/>
<path d="M102.469 12.5074H104.756V0H102.469V12.5074Z" fill="#201B24"/>
<path d="M110.48 12.6861C112.803 12.6861 115.09 11.221 115.09 7.86182C115.09 4.50268 112.803 3.03752 110.48 3.03752C108.14 3.03752 105.87 4.50268 105.87 7.86182C105.87 11.221 108.14 12.6861 110.48 12.6861ZM108.014 7.86182C108.014 5.84276 109.122 4.94938 110.48 4.94938C111.82 4.94938 112.928 5.84276 112.928 7.86182C112.928 9.88088 111.82 10.7743 110.48 10.7743C109.122 10.7743 108.014 9.88088 108.014 7.86182Z" fill="#201B24"/>
<path d="M120.292 16.2418C122.204 16.2418 124.991 15.5628 124.991 12.2216V3.2162H122.704V4.41334H122.668C122.15 3.60929 121.096 3.03752 119.809 3.03752C117.898 3.03752 115.843 4.324 115.843 7.66528C115.843 11.0066 117.862 12.2752 119.809 12.2752C121.096 12.2752 122.15 11.7034 122.668 10.8993H122.704V12.2216C122.704 13.8118 121.596 14.4729 120.238 14.4729C119.22 14.4729 118.13 14.0798 118.076 13.1328H116.057C116.075 15.7058 118.577 16.2418 120.292 16.2418ZM117.987 7.66528C117.987 5.80703 119.13 4.94938 120.399 4.94938C121.668 4.94938 122.793 5.80703 122.793 7.66528C122.793 9.50566 121.668 10.3812 120.399 10.3812C119.13 10.3812 117.987 9.50566 117.987 7.66528Z" fill="#201B24"/>
<path d="M126.758 14.0977V16.0453C129.188 16.3133 130.349 15.4378 131.439 12.7576L135.298 3.2162H132.94L130.546 9.6486L128.169 3.2162H125.829L129.259 11.7749C129.456 12.2573 129.456 12.5432 129.259 13.0256C128.991 13.6867 128.473 14.33 126.758 14.0977Z" fill="#201B24"/>
<path d="M46.6802 28.3899H48.1275L50.6468 20.7782L53.1662 28.3899H54.6135L57.2936 19.0987H56.0607L53.863 27.0677H53.7915L51.2186 19.0987H50.0929L47.5021 27.0677H47.4306L45.2507 19.0987H44L46.6802 28.3899Z" fill="#201B24"/>
<path d="M58.4017 28.3899H59.6703V19.0987H58.4017V28.3899ZM58.2052 16.3292C58.2052 16.7759 58.5982 17.1511 59.0449 17.1511C59.4916 17.1511 59.8669 16.7759 59.8669 16.3292C59.8669 15.8646 59.4916 15.4894 59.0449 15.4894C58.5982 15.4894 58.2052 15.8646 58.2052 16.3292Z" fill="#201B24"/>
<path d="M64.5567 28.515C64.932 28.515 65.2536 28.4793 65.5395 28.4078V27.4251C65.3072 27.4608 65.1464 27.4608 64.932 27.4608C63.9135 27.4608 63.5561 27.0856 63.5561 26.0492V20.135H65.3965V19.0987H63.5561V16.7937H62.2875V19.0987H60.7866V20.135H62.2875V26.2994C62.2875 27.9611 63.2345 28.515 64.5567 28.515Z" fill="#201B24"/>
<path d="M73.3541 22.9224V28.3899H74.6227V22.6722C74.6227 19.9027 73.0861 18.92 71.2636 18.92C69.0837 18.92 68.1724 20.3137 68.0116 20.9033V15.8825H66.743V28.3899H68.0116V22.9224C68.0116 21.0999 69.1016 20.0099 70.8526 20.0099C72.6036 20.0099 73.3541 21.0999 73.3541 22.9224Z" fill="#201B24"/>
<path d="M76.6175 28.3899H78.9582V24.048H81.5311C84.7473 24.048 86.2125 22.3863 86.2125 19.9742C86.2125 17.5442 84.7473 15.8825 81.5311 15.8825H76.6175V28.3899ZM78.9582 21.9932V17.9373H81.4418C83.0499 17.9373 83.7825 18.7056 83.7825 19.9742C83.7825 21.2249 83.0499 21.9932 81.4418 21.9932H78.9582Z" fill="#201B24"/>
<path d="M89.592 24.4054L89.6099 19.0987H87.3228V24.9414C87.3049 27.4608 88.7165 28.5686 90.539 28.5686C92.5044 28.5686 93.3978 27.2821 93.5765 26.4781H93.648V28.3899H95.935L95.9529 19.0987H93.6658L93.648 24.6377C93.5408 25.9956 92.6652 26.6746 91.486 26.6746C90.2531 26.6746 89.592 25.9242 89.592 24.4054Z" fill="#201B24"/>
<path d="M97.5221 28.3899H99.8091V24.0659C99.8091 21.886 101.078 20.9569 102.614 20.9569C102.847 20.9569 103.061 20.9748 103.329 21.0105V19.0808C103.079 19.0093 102.829 18.9915 102.614 18.9915C101.042 18.9915 100.166 20.0635 99.8627 21.3143H99.8091V19.0987H97.5221V28.3899Z" fill="#201B24"/>
<path d="M104.266 31.7848H106.554V27.0498C107 27.9254 108.072 28.5686 109.43 28.5686C111.431 28.5686 113.522 27.1392 113.522 23.7443C113.522 20.3494 111.431 18.92 109.43 18.92C108.072 18.92 107 19.5632 106.554 20.4388V19.0987H104.266V31.7848ZM106.446 23.7443C106.446 21.7431 107.643 20.8318 108.894 20.8318C110.181 20.8318 111.378 21.7431 111.378 23.7443C111.378 25.7455 110.181 26.6567 108.894 26.6567C107.643 26.6567 106.446 25.7455 106.446 23.7443Z" fill="#201B24"/>
<path d="M118.891 28.5686C121.213 28.5686 123.501 27.1034 123.501 23.7443C123.501 20.3852 121.213 18.92 118.891 18.92C116.55 18.92 114.281 20.3852 114.281 23.7443C114.281 27.1034 116.55 28.5686 118.891 28.5686ZM116.425 23.7443C116.425 21.7252 117.533 20.8318 118.891 20.8318C120.231 20.8318 121.339 21.7252 121.339 23.7443C121.339 25.7634 120.231 26.6567 118.891 26.6567C117.533 26.6567 116.425 25.7634 116.425 23.7443Z" fill="#201B24"/>
<path d="M128.025 28.5686C130.205 28.5686 132.099 27.7109 132.099 25.6561C132.099 24.0302 130.902 23.3869 129.437 23.0474L127.668 22.6544C126.918 22.5114 126.542 22.1719 126.542 21.6359C126.542 20.9927 127.061 20.6532 128.079 20.6532C129.08 20.6532 129.759 20.9927 129.902 22.0111H131.796C131.76 20.0457 130.42 18.92 128.061 18.92C125.828 18.92 124.327 19.9206 124.327 21.6716C124.327 22.9224 125.059 23.9051 126.935 24.3339L128.651 24.7092C129.366 24.8521 129.741 25.138 129.741 25.7097C129.741 26.4959 129.044 26.8354 128.061 26.8354C126.989 26.8354 126.239 26.4423 126.114 25.4596H124.077C124.095 27.5501 125.649 28.5686 128.025 28.5686Z" fill="#201B24"/>
<path d="M137.265 28.5686C139.337 28.5686 140.963 27.5859 141.464 25.4775H139.427C139.159 26.3709 138.48 26.8176 137.318 26.8176C135.853 26.8176 134.978 26.0671 134.835 24.3339H141.535C141.571 24.1374 141.589 23.9587 141.589 23.6371C141.589 20.2422 139.623 18.92 137.229 18.92C134.799 18.92 132.673 20.2958 132.673 23.7264C132.673 27.1928 134.853 28.5686 137.265 28.5686ZM134.853 22.9402C135.013 21.4215 135.853 20.671 137.193 20.671C138.694 20.671 139.373 21.6359 139.427 22.9402H134.853Z" fill="#201B24"/>
<path d="M44.8978 39.9047H46.1461V37.1126H48.7095V36.0929H46.1461V34.33H49.2527V33.2341H44.8978V39.9047Z" fill="#8C939C"/>
<path d="M52.2711 40C53.5099 40 54.7297 39.2186 54.7297 37.427C54.7297 35.6355 53.5099 34.8541 52.2711 34.8541C51.0228 34.8541 49.8125 35.6355 49.8125 37.427C49.8125 39.2186 51.0228 40 52.2711 40ZM50.956 37.427C50.956 36.3502 51.5469 35.8737 52.2711 35.8737C52.9858 35.8737 53.5767 36.3502 53.5767 37.427C53.5767 38.5039 52.9858 38.9803 52.2711 38.9803C51.5469 38.9803 50.956 38.5039 50.956 37.427Z" fill="#8C939C"/>
<path d="M57.0096 37.7796L57.0191 34.9494H55.7993V38.0655C55.7898 39.4092 56.5426 40 57.5146 40C58.5629 40 59.0394 39.3139 59.1346 38.885H59.1728V39.9047H60.3925L60.4021 34.9494H59.1823L59.1728 37.9035C59.1156 38.6278 58.6486 38.9899 58.0197 38.9899C57.3622 38.9899 57.0096 38.5896 57.0096 37.7796Z" fill="#8C939C"/>
<path d="M65.0984 37.0744V39.9047H66.3182V36.7886C66.3182 35.4449 65.5653 34.8541 64.5933 34.8541C63.5451 34.8541 63.0686 35.5402 62.9733 35.969H62.9352V34.9494H61.7154V39.9047H62.9352V37.0744C62.9352 36.2644 63.4212 35.8642 64.0883 35.8642C64.7458 35.8642 65.0984 36.2644 65.0984 37.0744Z" fill="#8C939C"/>
<path d="M69.5755 40C70.2998 40 70.8715 39.6569 71.1098 39.19V39.9047H72.3295V33.2341H71.1098V35.6641C70.8715 35.1971 70.2998 34.8541 69.5755 34.8541C68.5082 34.8541 67.3933 35.6164 67.3933 37.427C67.3933 39.2376 68.5082 40 69.5755 40ZM68.5368 37.427C68.5368 36.3597 69.1753 35.8737 69.8614 35.8737C70.5285 35.8737 71.167 36.3597 71.167 37.427C71.167 38.4943 70.5285 38.9803 69.8614 38.9803C69.1753 38.9803 68.5368 38.4943 68.5368 37.427Z" fill="#8C939C"/>
<path d="M74.9939 40C76.0993 40 76.5472 39.2948 76.652 39.0185H76.6996V39.9047H77.8718V36.4741C77.8718 35.3782 77.2619 34.8541 75.8039 34.8541C74.3268 34.8541 73.6693 35.3877 73.6693 36.3502V36.5694H74.8128V36.4646C74.8128 35.9214 75.2321 35.7403 75.7753 35.7403C76.3089 35.7403 76.671 35.9214 76.671 36.5217V36.6266C76.671 36.8839 76.5281 36.9696 76.0421 37.0363L75.1177 37.1602C74.2124 37.2841 73.4024 37.5795 73.4024 38.6087C73.4024 39.5998 74.1553 40 74.9939 40ZM74.6222 38.5039C74.6222 38.2085 74.7842 37.9702 75.2988 37.894L76.0897 37.7701C76.3661 37.732 76.6043 37.6748 76.671 37.5605V38.1894C76.671 38.5896 76.1755 39.1138 75.3941 39.1138C74.8795 39.1138 74.6222 38.8851 74.6222 38.5039Z" fill="#8C939C"/>
<path d="M81.0749 39.9714C81.3322 39.9714 81.5705 39.9428 81.7801 39.8856V38.9708C81.599 38.9899 81.5133 38.9899 81.3989 38.9899C80.8843 38.9899 80.7509 38.7516 80.7509 38.3228V35.9023H81.7229V34.9494H80.7509V33.682H79.5312V34.9494H78.7021V35.9023H79.5312V38.5134C79.5312 39.5616 80.141 39.9714 81.0749 39.9714Z" fill="#8C939C"/>
<path d="M82.802 39.9047H84.0218V34.9494H82.802V39.9047ZM82.7162 33.5676C82.7162 33.9583 83.0402 34.2537 83.4119 34.2537C83.774 34.2537 84.098 33.9583 84.098 33.5676C84.098 33.1769 83.774 32.8815 83.4119 32.8815C83.0402 32.8815 82.7162 33.1769 82.7162 33.5676Z" fill="#8C939C"/>
<path d="M87.551 40C88.7899 40 90.0096 39.2186 90.0096 37.427C90.0096 35.6355 88.7899 34.8541 87.551 34.8541C86.3027 34.8541 85.0924 35.6355 85.0924 37.427C85.0924 39.2186 86.3027 40 87.551 40ZM86.236 37.427C86.236 36.3502 86.8268 35.8737 87.551 35.8737C88.2657 35.8737 88.8566 36.3502 88.8566 37.427C88.8566 38.5039 88.2657 38.9803 87.551 38.9803C86.8268 38.9803 86.236 38.5039 86.236 37.427Z" fill="#8C939C"/>
<path d="M94.4622 37.0744V39.9047H95.682V36.7886C95.682 35.4449 94.9292 34.8541 93.9571 34.8541C92.9089 34.8541 92.4324 35.5402 92.3371 35.969H92.299V34.9494H91.0792V39.9047H92.299V37.0744C92.299 36.2644 92.785 35.8642 93.4521 35.8642C94.1096 35.8642 94.4622 36.2644 94.4622 37.0744Z" fill="#8C939C"/>
<path d="M17.3816 21.8177C16.0862 21.8177 14.8693 21.3135 13.9529 20.398C13.637 20.082 13.6378 19.5705 13.9529 19.2554C14.2689 18.9402 14.7804 18.9402 15.0955 19.2554C15.7056 19.8654 16.5177 20.2024 17.3807 20.2024C18.2438 20.2024 19.0559 19.8663 19.666 19.2554C20.9265 17.9948 20.9265 15.9447 19.666 14.6841C19.0559 14.0732 18.2438 13.7371 17.3807 13.7371C16.5177 13.7371 15.7056 14.0732 15.0955 14.6841C14.7796 15.0001 14.2681 15.0001 13.9529 14.6841C13.6378 14.3682 13.637 13.8567 13.9529 13.5415C14.8685 12.626 16.0862 12.1218 17.3816 12.1218C18.6769 12.1218 19.8938 12.626 20.8102 13.5415C22.7002 15.4316 22.7002 18.5079 20.8102 20.398C19.8946 21.3135 18.6769 21.8177 17.3816 21.8177Z" fill="#9E23FF" fill-opacity="0.35"/>
<path d="M25.4621 17.7774C25.016 17.7774 24.654 17.4154 24.654 16.9693C24.654 12.9589 21.3918 9.69676 17.3814 9.69676C14.7932 9.69676 12.3787 11.0907 11.0809 13.3339C10.8571 13.7201 10.3634 13.8518 9.97712 13.6288C9.59087 13.405 9.45915 12.9112 9.68218 12.525C11.2676 9.78403 14.2178 8.08144 17.3814 8.08144C22.2823 8.08144 26.2701 12.0692 26.2701 16.9702C26.2701 17.4162 25.9081 17.7782 25.4621 17.7782V17.7774Z" fill="#9E23FF"/>
<path d="M17.3815 25.858C14.2179 25.858 11.2685 24.1554 9.68222 21.4145C9.45839 21.0282 9.59091 20.5337 9.97717 20.3106C10.3634 20.0868 10.858 20.2193 11.081 20.6056C12.3787 22.8488 14.7924 24.2427 17.3807 24.2427C19.9689 24.2427 22.3834 22.8488 23.6811 20.6056C23.9042 20.2193 24.3987 20.0868 24.785 20.3106C25.1712 20.5345 25.3029 21.0282 25.0799 21.4145C23.4945 24.1554 20.5442 25.858 17.3807 25.858H17.3815Z" fill="#9E23FF"/>
<path d="M7.78734 39.9992C7.54249 39.9992 7.30088 39.8885 7.14169 39.6776C3.86984 35.3439 1.61291 30.5222 0.613334 25.736C-0.516341 20.3277 -0.0840263 15.0445 1.89816 10.0329C2.06219 9.61757 2.53168 9.41474 2.94703 9.57878C3.36237 9.74282 3.5652 10.2123 3.40116 10.6276C1.53776 15.3395 1.13211 20.3123 2.19553 25.4063C3.14662 29.9606 5.30334 34.5593 8.43217 38.7047C8.70126 39.061 8.63015 39.5677 8.27379 39.8368C8.12834 39.9467 7.95703 40 7.78734 40V39.9992Z" fill="#9E23FF" fill-opacity="0.65"/>
<path d="M13.342 39.9992C13.1238 39.9992 12.9072 39.9119 12.748 39.739C9.74364 36.4817 7.39622 32.7598 5.96029 28.9756C4.17285 24.2662 3.75104 19.4606 4.70536 14.693C5.96109 8.42084 11.1739 4.04032 17.3815 4.04032C20.5677 4.04032 23.6286 5.20959 26.0011 7.33238C26.334 7.62975 26.3623 8.14045 26.0641 8.47337C25.7668 8.80629 25.2561 8.83457 24.9231 8.5364C22.848 6.67866 20.1693 5.65565 17.3815 5.65565C14.7666 5.65565 12.2309 6.57118 10.2422 8.23337C8.20347 9.93758 6.83623 12.281 6.28998 15.0106C4.09366 25.9793 10.1372 34.5254 13.9359 38.6433C14.2381 38.9714 14.2179 39.4829 13.8898 39.7851C13.7347 39.9281 13.5383 39.9992 13.342 39.9992Z" fill="#9E23FF"/>
<path d="M19.3532 39.9992C19.1714 39.9992 18.988 39.9378 18.8369 39.8125C17.3298 38.56 13.6265 35.2372 11.7817 31.4458C11.5861 31.0442 11.7534 30.561 12.155 30.3654C12.5566 30.1699 13.0398 30.3371 13.2354 30.7387C13.8042 31.9072 15.5893 35.0102 19.8712 38.5697C20.2146 38.8549 20.2615 39.3648 19.9762 39.7075C19.8162 39.8998 19.586 39.9992 19.3548 39.9992H19.3532Z" fill="#9E23FF" fill-opacity="0.35"/>
<path d="M27.8824 11.7169C27.6036 11.7169 27.3321 11.5722 27.1818 11.3136C25.8299 8.97672 23.6894 7.19656 21.1528 6.30041C20.7318 6.15173 20.5112 5.69032 20.6599 5.26932C20.8086 4.84832 21.27 4.62772 21.691 4.7764C24.5895 5.80103 27.0364 7.83493 28.5806 10.5048C28.8044 10.891 28.6719 11.3856 28.2856 11.6086C28.158 11.6821 28.019 11.7177 27.8816 11.7177L27.8824 11.7169Z" fill="#9E23FF"/>
<path d="M9.30095 17.7775C8.8549 17.7775 8.49289 17.4155 8.49289 16.9694C8.49289 15.4066 8.90419 13.8697 9.68236 12.5243C9.9062 12.138 10.3999 12.0063 10.7862 12.2293C11.1724 12.4532 11.3041 12.9469 11.0811 13.3331C10.4452 14.4329 10.109 15.6903 10.109 16.9686C10.109 17.4147 9.74701 17.7767 9.30095 17.7767V17.7775Z" fill="#9E23FF"/>
<path d="M19.3944 33.8935C19.0009 33.8935 18.6567 33.6058 18.5961 33.205C18.5298 32.7638 18.8345 32.3525 19.2757 32.2862C22.3358 31.8281 25.3087 30.4115 27.6472 28.2968C30.0431 26.1304 31.6714 23.387 32.355 20.364C32.6071 19.2497 32.7348 18.1079 32.7348 16.9702C32.7348 8.50408 25.8477 1.61694 17.3816 1.61694C13.637 1.61694 10.0306 2.98014 7.2266 5.45525C6.89206 5.75019 6.38137 5.71868 6.08642 5.38414C5.79148 5.0496 5.82299 4.5389 6.15753 4.24396C9.25646 1.50704 13.2435 0 17.3816 0C26.7381 0 34.3509 7.61278 34.3509 16.9694C34.3509 18.2267 34.2095 19.4889 33.9315 20.7196C33.1744 24.069 31.3756 27.1033 28.7316 29.4952C26.1224 31.8547 22.9354 33.3723 19.5148 33.8846C19.4744 33.8911 19.434 33.8935 19.3944 33.8935Z" fill="#9E23FF" fill-opacity="0.65"/>
<path d="M22.7504 37.4191C22.3852 37.4191 22.0539 37.1702 21.965 36.7993C21.8607 36.3654 22.1282 35.929 22.5621 35.8248C24.8094 35.2858 26.9709 34.2216 28.8117 32.7468C29.16 32.4681 29.6682 32.5238 29.9478 32.8721C30.2266 33.2204 30.1709 33.7286 29.8226 34.0082C27.7968 35.6308 25.417 36.8025 22.9395 37.3964C22.8765 37.4118 22.8126 37.4191 22.7504 37.4191Z" fill="#9E23FF" fill-opacity="0.35"/>
<path d="M17.3816 29.8984C14.8249 29.8984 12.3522 29.1533 10.2318 27.7433C9.86012 27.496 9.75911 26.995 10.0064 26.6233C10.2536 26.2516 10.7546 26.1506 11.1264 26.3978C12.9809 27.631 15.1441 28.2831 17.3816 28.2831C23.6199 28.2831 28.6945 23.2084 28.6945 16.9702C28.6945 16.5241 29.0565 16.1621 29.5026 16.1621C29.9486 16.1621 30.3106 16.5241 30.3106 16.9702C30.3106 24.0989 24.5103 29.8992 17.3816 29.8992V29.8984Z" fill="#9E23FF" fill-opacity="0.35"/>
</svg>
