<!DOCTYPE svg PUBLIC "-//W3C//DTD SVG 1.1//EN" "http://www.w3.org/Graphics/SVG/1.1/DTD/svg11.dtd">
<!-- Uploaded to: SVG Repo, www.svgrepo.com, Transformed by: SVG Repo Mixer Tools -->
<svg fill="#000000" width="800px" height="800px" viewBox="-1.6 -1.6 35.20 35.20" version="1.1" xmlns="http://www.w3.org/2000/svg">
<g id="SVGRepo_bgCarrier" stroke-width="0"/>
<g id="SVGRepo_tracerCarrier" stroke-linecap="round" stroke-linejoin="round"/>
<g id="SVGRepo_iconCarrier"> <title>instagram</title> <path d="M14.48 11.28c0 0.48-0.4 0.84-0.84 0.84-0.48 0-0.84-0.4-0.84-0.84 0-0.48 0.4-0.84 0.84-0.84 0.44-0.040 0.84 0.36 0.84 0.84zM17.76 11.64v8.72c0 2.48-2.040 4.52-4.52 4.52h-8.72c-2.48 0-4.52-2.040-4.52-4.52v-8.72c0-2.48 2.040-4.52 4.52-4.52h8.72c2.52 0 4.52 2.040 4.52 4.52zM16.080 11.64c0-1.56-1.28-2.84-2.84-2.84h-8.72c-1.56 0-2.84 1.28-2.84 2.84v8.72c0 1.56 1.28 2.84 2.84 2.84h8.72c1.6 0 2.88-1.28 2.88-2.84l-0.040-8.72zM13.52 16c0-2.56-2.080-4.64-4.64-4.64s-4.64 2.080-4.64 4.64 2.080 4.64 4.64 4.64 4.64-2.080 4.64-4.64zM11.84 16c0 1.64-1.32 2.96-2.96 2.96s-2.96-1.32-2.96-2.96 1.32-2.96 2.96-2.96 2.96 1.32 2.96 2.96z"/> </g>
</svg>