<?xml version="1.0" encoding="iso-8859-1"?>
<!-- Uploaded to: SVG Repo, www.svgrepo.com, Generator: SVG Repo Mixer Tools -->
<svg height="800px" width="800px" version="1.1" id="Capa_1" xmlns="http://www.w3.org/2000/svg" xmlns:xlink="http://www.w3.org/1999/xlink" 
	 viewBox="0 0 21.903 21.903" xml:space="preserve">
<g>
	<path style="fill:#030104;" d="M2.67,1.211c0.682,0,1.216,0.215,1.604,0.643S4.87,2.822,4.898,3.469
		c0,0.639-0.218,1.178-0.657,1.616C3.802,5.522,3.202,5.741,2.443,5.741H2.416c-0.741,0-1.328-0.219-1.765-0.656
		C0.219,4.647,0,4.108,0,3.469c0-0.657,0.238-1.197,0.718-1.622C1.198,1.423,1.85,1.211,2.67,1.211z M0.287,7.535H4.97v13.156H0.287
		V7.535z M21.903,13.148v7.543h-4.682v-7.036c0-0.895-0.184-1.612-0.55-2.158c-0.364-0.541-0.973-0.812-1.833-0.812
		c-0.655,0-1.181,0.166-1.573,0.5c-0.393,0.332-0.678,0.699-0.85,1.102c-0.056,0.146-0.091,0.307-0.11,0.486
		c-0.018,0.176-0.026,0.367-0.026,0.568v7.351H7.568c0.02-2.226,0.031-4.268,0.031-6.12v-2.339v-2.125
		c0-0.647-0.007-1.199-0.018-1.657C7.575,7.997,7.568,7.69,7.568,7.535h4.711v1.863l-0.026,0.054h0.026V9.398
		c0.146-0.229,0.333-0.468,0.561-0.719c0.231-0.25,0.507-0.484,0.843-0.7c0.333-0.214,0.734-0.39,1.204-0.533
		c0.473-0.141,1.011-0.211,1.624-0.211c0.762,0,1.474,0.116,2.138,0.349c0.662,0.233,1.231,0.598,1.715,1.096
		c0.481,0.495,0.858,1.111,1.132,1.847C21.769,11.261,21.903,12.135,21.903,13.148z"/>
</g>
</svg>