<svg width="177" height="51" viewBox="0 0 177 51" fill="none" xmlns="http://www.w3.org/2000/svg">
<path d="M59.6722 15.6356H62.5983V2.61337H67.2443V0H55.0262V2.61337H59.6722V15.6356Z" fill="white"/>
<path d="M71.4909 15.8589C74.0819 15.8589 76.1145 14.6304 76.7399 11.9947H74.1936C73.8585 13.1115 73.0097 13.6699 71.5579 13.6699C69.7263 13.6699 68.6318 12.7318 68.4531 10.5652H76.8293C76.8739 10.3195 76.8963 10.0961 76.8963 9.69404C76.8963 5.45011 74.4393 3.79721 71.4462 3.79721C68.4084 3.79721 65.7504 5.51712 65.7504 9.80572C65.7504 14.139 68.4754 15.8589 71.4909 15.8589ZM68.4754 8.82292C68.6765 6.92432 69.7263 5.98618 71.4015 5.98618C73.2778 5.98618 74.1266 7.19235 74.1936 8.82292H68.4754Z" fill="white"/>
<path d="M83.6094 15.8589C85.6644 15.8589 88.4565 14.9878 88.8139 11.2576H86.2228C85.9324 12.7988 84.9496 13.4466 83.5871 13.4466C81.5992 13.4466 80.5047 12.0394 80.5047 9.8504C80.5047 7.66142 81.5992 6.20955 83.5871 6.20955C84.905 6.20955 85.9324 6.81263 86.2228 8.37619H88.8139C88.3895 4.62366 85.6421 3.79721 83.6094 3.79721C80.7057 3.79721 77.8243 5.56179 77.8243 9.8504C77.8243 14.139 80.7057 15.8589 83.6094 15.8589Z" fill="white"/>
<path d="M98.168 9.00161V15.6356H101.027V8.33152C101.027 5.18207 99.2624 3.79721 96.9841 3.79721C94.5271 3.79721 93.4103 5.40543 93.1869 6.41058H93.0976V0H90.2385V15.6356H93.0976V9.00161C93.0976 7.10301 94.2367 6.16487 95.8003 6.16487C97.3415 6.16487 98.168 7.10301 98.168 9.00161Z" fill="white"/>
<path d="M110.918 9.00161V15.6356H113.777V8.33152C113.777 5.18207 112.013 3.79721 109.734 3.79721C107.277 3.79721 106.16 5.40543 105.937 6.41058H105.848V4.02057H102.989V15.6356H105.848V9.00161C105.848 7.10301 106.987 6.16487 108.55 6.16487C110.092 6.16487 110.918 7.10301 110.918 9.00161Z" fill="white"/>
<path d="M120.943 15.8589C123.847 15.8589 126.706 14.0273 126.706 9.82806C126.706 5.6288 123.847 3.79721 120.943 3.79721C118.017 3.79721 115.18 5.6288 115.18 9.82806C115.18 14.0273 118.017 15.8589 120.943 15.8589ZM117.861 9.82806C117.861 7.30404 119.246 6.18721 120.943 6.18721C122.618 6.18721 124.003 7.30404 124.003 9.82806C124.003 12.3521 122.618 13.4689 120.943 13.4689C119.246 13.4689 117.861 12.3521 117.861 9.82806Z" fill="white"/>
<path d="M128.096 15.6356H130.955V0H128.096V15.6356Z" fill="white"/>
<path d="M138.111 15.8589C141.015 15.8589 143.874 14.0273 143.874 9.82806C143.874 5.6288 141.015 3.79721 138.111 3.79721C135.185 3.79721 132.348 5.6288 132.348 9.82806C132.348 14.0273 135.185 15.8589 138.111 15.8589ZM135.028 9.82806C135.028 7.30404 136.413 6.18721 138.111 6.18721C139.786 6.18721 141.171 7.30404 141.171 9.82806C141.171 12.3521 139.786 13.4689 138.111 13.4689C136.413 13.4689 135.028 12.3521 135.028 9.82806Z" fill="white"/>
<path d="M150.376 20.3039C152.766 20.3039 156.251 19.4551 156.251 15.2782V4.02057H153.392V5.51712H153.347C152.699 4.51197 151.382 3.79721 149.773 3.79721C147.383 3.79721 144.815 5.40543 144.815 9.58236C144.815 13.7593 147.339 15.3452 149.773 15.3452C151.382 15.3452 152.699 14.6304 153.347 13.6253H153.392V15.2782C153.392 17.2661 152.007 18.0926 150.309 18.0926C149.036 18.0926 147.674 17.6012 147.607 16.4173H145.083C145.105 19.6338 148.232 20.3039 150.376 20.3039ZM147.495 9.58236C147.495 7.25936 148.924 6.18721 150.51 6.18721C152.096 6.18721 153.503 7.25936 153.503 9.58236C153.503 11.883 152.096 12.9775 150.51 12.9775C148.924 12.9775 147.495 11.883 147.495 9.58236Z" fill="white"/>
<path d="M158.459 17.6235V20.0582C161.497 20.3932 162.949 19.2987 164.311 15.9483L169.136 4.02057H166.188L163.195 12.0617L160.224 4.02057H157.298L161.586 14.7198C161.832 15.3228 161.832 15.6802 161.586 16.2833C161.251 17.1098 160.604 17.9139 158.459 17.6235Z" fill="white"/>
<path d="M58.3544 35.4902H60.1636L63.3131 25.9749L66.4625 35.4902H68.2718L71.6223 23.8752H70.081L67.3337 33.8373H67.2443L64.0278 23.8752H62.6207L59.3819 33.8373H59.2925L56.5675 23.8752H55.0039L58.3544 35.4902Z" fill="white"/>
<path d="M73.0075 35.4902H74.5934V23.8752H73.0075V35.4902ZM72.7618 20.4131C72.7618 20.9715 73.2532 21.4406 73.8116 21.4406C74.37 21.4406 74.8391 20.9715 74.8391 20.4131C74.8391 19.8323 74.37 19.3633 73.8116 19.3633C73.2532 19.3633 72.7618 19.8323 72.7618 20.4131Z" fill="white"/>
<path d="M80.7019 35.6466C81.1709 35.6466 81.573 35.6019 81.9304 35.5126V34.284C81.64 34.3287 81.439 34.3287 81.1709 34.3287C79.8978 34.3287 79.451 33.8597 79.451 32.5641V25.1708H81.7517V23.8752H79.451V20.9938H77.8651V23.8752H75.9889V25.1708H77.8651V32.8768C77.8651 34.9541 79.049 35.6466 80.7019 35.6466Z" fill="white"/>
<path d="M91.6994 28.6552V35.4902H93.2853V28.3425C93.2853 24.8804 91.3644 23.6519 89.0861 23.6519C86.361 23.6519 85.2219 25.3941 85.0208 26.1312V19.8547H83.4349V35.4902H85.0208V28.6552C85.0208 26.3769 86.3834 25.0144 88.5723 25.0144C90.7613 25.0144 91.6994 26.3769 91.6994 28.6552Z" fill="white"/>
<path d="M95.779 35.4902H98.7051V30.0624H101.922C105.942 30.0624 107.774 27.9852 107.774 24.9697C107.774 21.932 105.942 19.8547 101.922 19.8547H95.779V35.4902ZM98.7051 27.4937V22.4234H101.81C103.82 22.4234 104.736 23.3838 104.736 24.9697C104.736 26.5333 103.82 27.4937 101.81 27.4937H98.7051Z" fill="white"/>
<path d="M111.998 30.5092L112.021 23.8752H109.162V31.1793C109.139 34.3287 110.904 35.7136 113.182 35.7136C115.639 35.7136 116.756 34.1054 116.979 33.1002H117.069V35.4902H119.928L119.95 23.8752H117.091L117.069 30.7996C116.935 32.4971 115.84 33.3459 114.366 33.3459C112.825 33.3459 111.998 32.4078 111.998 30.5092Z" fill="white"/>
<path d="M121.912 35.4902H124.771V30.0848C124.771 27.3597 126.357 26.1982 128.278 26.1982C128.568 26.1982 128.836 26.2206 129.171 26.2652V23.8529C128.858 23.7636 128.546 23.7412 128.278 23.7412C126.312 23.7412 125.218 25.0814 124.838 26.645H124.771V23.8752H121.912V35.4902Z" fill="white"/>
<path d="M130.343 39.7341H133.202V33.815C133.76 34.9095 135.101 35.7136 136.798 35.7136C139.3 35.7136 141.913 33.9267 141.913 29.6827C141.913 25.4388 139.3 23.6519 136.798 23.6519C135.101 23.6519 133.76 24.456 133.202 25.5505V23.8752H130.343V39.7341ZM133.068 29.6827C133.068 27.181 134.565 26.0419 136.128 26.0419C137.736 26.0419 139.233 27.181 139.233 29.6827C139.233 32.1844 137.736 33.3236 136.128 33.3236C134.565 33.3236 133.068 32.1844 133.068 29.6827Z" fill="white"/>
<path d="M148.625 35.7136C151.528 35.7136 154.388 33.882 154.388 29.6827C154.388 25.4835 151.528 23.6519 148.625 23.6519C145.699 23.6519 142.862 25.4835 142.862 29.6827C142.862 33.882 145.699 35.7136 148.625 35.7136ZM145.542 29.6827C145.542 27.1587 146.927 26.0419 148.625 26.0419C150.3 26.0419 151.685 27.1587 151.685 29.6827C151.685 32.2068 150.3 33.3236 148.625 33.3236C146.927 33.3236 145.542 32.2068 145.542 29.6827Z" fill="white"/>
<path d="M160.044 35.7136C162.769 35.7136 165.137 34.6414 165.137 32.0727C165.137 30.0401 163.64 29.236 161.809 28.8116L159.597 28.3202C158.659 28.1415 158.19 27.7171 158.19 27.047C158.19 26.2429 158.838 25.8185 160.111 25.8185C161.362 25.8185 162.211 26.2429 162.389 27.5161H164.757C164.712 25.0591 163.037 23.6519 160.089 23.6519C157.297 23.6519 155.42 24.9027 155.42 27.0917C155.42 28.6552 156.336 29.8838 158.682 30.4198L160.826 30.8889C161.719 31.0676 162.188 31.425 162.188 32.1397C162.188 33.1225 161.317 33.5469 160.089 33.5469C158.749 33.5469 157.81 33.0555 157.654 31.827H155.108C155.13 34.4404 157.073 35.7136 160.044 35.7136Z" fill="white"/>
<path d="M171.594 35.7136C174.185 35.7136 176.218 34.4851 176.843 31.8494H174.297C173.962 32.9662 173.113 33.5246 171.661 33.5246C169.83 33.5246 168.735 32.5865 168.556 30.4198H176.933C176.977 30.1741 177 29.9508 177 29.5487C177 25.3048 174.543 23.6519 171.549 23.6519C168.512 23.6519 165.854 25.3718 165.854 29.6604C165.854 33.9937 168.579 35.7136 171.594 35.7136ZM168.579 28.6776C168.78 26.779 169.83 25.8408 171.505 25.8408C173.381 25.8408 174.23 27.047 174.297 28.6776H168.579Z" fill="white"/>
<path d="M56.1262 49.8848H57.6868V46.3944H60.8913V45.1197H57.6868V42.9159H61.5703V41.5459H56.1262V49.8848Z" fill="white"/>
<path d="M65.3436 50.004C66.8923 50.004 68.4171 49.0271 68.4171 46.7875C68.4171 44.5479 66.8923 43.5711 65.3436 43.5711C63.783 43.5711 62.2701 44.5479 62.2701 46.7875C62.2701 49.0271 63.783 50.004 65.3436 50.004ZM63.6997 46.7875C63.6997 45.4414 64.4383 44.8457 65.3436 44.8457C66.2371 44.8457 66.9757 45.4414 66.9757 46.7875C66.9757 48.1337 66.2371 48.7293 65.3436 48.7293C64.4383 48.7293 63.6997 48.1337 63.6997 46.7875Z" fill="white"/>
<path d="M71.2672 47.2283L71.2791 43.6902H69.7542V47.5857C69.7423 49.2654 70.6834 50.004 71.8985 50.004C73.209 50.004 73.8046 49.1463 73.9237 48.6102H73.9714V49.8848H75.4962L75.5081 43.6902H73.9833L73.9714 47.3832C73.8999 48.2885 73.3162 48.7412 72.5299 48.7412C71.7079 48.7412 71.2672 48.2409 71.2672 47.2283Z" fill="white"/>
<path d="M81.379 46.3467V49.8848H82.9038V45.9894C82.9038 44.3097 81.9627 43.5711 80.7476 43.5711C79.4372 43.5711 78.8416 44.4288 78.7224 44.9649H78.6748V43.6902H77.1499V49.8848H78.6748V46.3467C78.6748 45.3342 79.2823 44.8338 80.1162 44.8338C80.9382 44.8338 81.379 45.3342 81.379 46.3467Z" fill="white"/>
<path d="M86.9759 50.004C87.8812 50.004 88.596 49.5751 88.8938 48.9914V49.8848H90.4187V41.5459H88.8938V44.5837C88.596 43.9999 87.8812 43.5711 86.9759 43.5711C85.6416 43.5711 84.2478 44.5241 84.2478 46.7875C84.2478 49.051 85.6416 50.004 86.9759 50.004ZM85.6774 46.7875C85.6774 45.4533 86.4755 44.8457 87.3332 44.8457C88.1671 44.8457 88.9653 45.4533 88.9653 46.7875C88.9653 48.1218 88.1671 48.7293 87.3332 48.7293C86.4755 48.7293 85.6774 48.1218 85.6774 46.7875Z" fill="white"/>
<path d="M93.7493 50.004C95.1312 50.004 95.6911 49.1224 95.8221 48.777H95.8817V49.8848H97.347V45.5962C97.347 44.2263 96.5846 43.5711 94.7619 43.5711C92.9154 43.5711 92.0934 44.2382 92.0934 45.4414V45.7154H93.523V45.5843C93.523 44.9053 94.0471 44.679 94.7262 44.679C95.3933 44.679 95.846 44.9053 95.846 45.6558V45.7868C95.846 46.1085 95.6673 46.2157 95.0597 46.2991L93.9042 46.454C92.7725 46.6088 91.7599 46.9781 91.7599 48.2647C91.7599 49.5036 92.701 50.004 93.7493 50.004ZM93.2847 48.1337C93.2847 47.7644 93.4872 47.4666 94.1305 47.3713L95.1193 47.2164C95.4648 47.1687 95.7626 47.0973 95.846 46.9543V47.7405C95.846 48.2409 95.2265 48.8961 94.2496 48.8961C93.6064 48.8961 93.2847 48.6102 93.2847 48.1337Z" fill="white"/>
<path d="M101.351 49.9682C101.673 49.9682 101.971 49.9325 102.233 49.861V48.7174C102.006 48.7412 101.899 48.7412 101.756 48.7412C101.113 48.7412 100.946 48.4434 100.946 47.9073V44.8815H102.161V43.6902H100.946V42.1058H99.4214V43.6902H98.385V44.8815H99.4214V48.1456C99.4214 49.456 100.184 49.9682 101.351 49.9682Z" fill="white"/>
<path d="M103.51 49.8848H105.035V43.6902H103.51V49.8848ZM103.403 41.9628C103.403 42.4513 103.808 42.8206 104.273 42.8206C104.725 42.8206 105.13 42.4513 105.13 41.9628C105.13 41.4744 104.725 41.1051 104.273 41.1051C103.808 41.1051 103.403 41.4744 103.403 41.9628Z" fill="white"/>
<path d="M109.447 50.004C110.996 50.004 112.521 49.0271 112.521 46.7875C112.521 44.5479 110.996 43.5711 109.447 43.5711C107.886 43.5711 106.374 44.5479 106.374 46.7875C106.374 49.0271 107.886 50.004 109.447 50.004ZM107.803 46.7875C107.803 45.4414 108.542 44.8457 109.447 44.8457C110.34 44.8457 111.079 45.4414 111.079 46.7875C111.079 48.1337 110.34 48.7293 109.447 48.7293C108.542 48.7293 107.803 48.1337 107.803 46.7875Z" fill="white"/>
<path d="M118.087 46.3467V49.8848H119.612V45.9894C119.612 44.3097 118.67 43.5711 117.455 43.5711C116.145 43.5711 115.549 44.4288 115.43 44.9649H115.382V43.6902H113.858V49.8848H115.382V46.3467C115.382 45.3342 115.99 44.8338 116.824 44.8338C117.646 44.8338 118.087 45.3342 118.087 46.3467Z" fill="white"/>
<path d="M21.7287 27.2743C20.1094 27.2743 18.5881 26.644 17.4426 25.4995C17.0476 25.1045 17.0486 24.4651 17.4426 24.0711C17.8375 23.6772 18.477 23.6772 18.8709 24.0711C19.6336 24.8338 20.6488 25.255 21.7277 25.255C22.8065 25.255 23.8217 24.8348 24.5844 24.0711C26.1603 22.4953 26.1603 19.9325 24.5844 18.3566C23.8217 17.593 22.8065 17.1727 21.7277 17.1727C20.6488 17.1727 19.6336 17.593 18.8709 18.3566C18.476 18.7516 17.8365 18.7516 17.4426 18.3566C17.0486 17.9617 17.0476 17.3222 17.4426 16.9283C18.5871 15.7838 20.1094 15.1534 21.7287 15.1534C23.348 15.1534 24.8693 15.7838 26.0148 16.9283C28.3776 19.291 28.3776 23.1367 26.0148 25.4995C24.8703 26.644 23.348 27.2743 21.7287 27.2743Z" fill="white" fill-opacity="0.35"/>
<path d="M31.8301 22.2235C31.2725 22.2235 30.82 21.771 30.82 21.2134C30.82 16.1999 26.7419 12.1219 21.7285 12.1219C18.493 12.1219 15.4746 13.8644 13.8523 16.6687C13.5725 17.1515 12.9553 17.3162 12.4724 17.0374C11.9895 16.7575 11.8249 16.1403 12.1037 15.6575C14.0856 12.231 17.7737 10.1026 21.7285 10.1026C27.8551 10.1026 32.8403 15.0877 32.8403 21.2144C32.8403 21.772 32.3877 22.2245 31.8301 22.2245V22.2235Z" fill="white"/>
<path d="M21.7286 32.3251C17.7738 32.3251 14.0867 30.1967 12.1037 26.7702C11.8239 26.2873 11.9896 25.6691 12.4725 25.3903C12.9553 25.1105 13.5735 25.2762 13.8523 25.759C15.4747 28.5632 18.492 30.3058 21.7276 30.3058C24.9631 30.3058 27.9815 28.5632 29.6038 25.759C29.8826 25.2762 30.5008 25.1105 30.9837 25.3903C31.4665 25.6701 31.6312 26.2873 31.3524 26.7702C29.3704 30.1967 25.6823 32.3251 21.7276 32.3251H21.7286Z" fill="white"/>
<path d="M9.73495 50.003C9.42887 50.003 9.12683 49.8646 8.92782 49.6009C4.83768 44.1834 2.0163 38.1558 0.766728 32.1726C-0.645478 25.4116 -0.105041 18.8072 2.37289 12.5421C2.57795 12.0229 3.16485 11.7694 3.68408 11.9744C4.2033 12.1795 4.45685 12.7664 4.25179 13.2856C1.92235 19.1759 1.41525 25.3924 2.74463 31.7605C3.93359 37.4537 6.62971 43.2026 10.5411 48.3847C10.8774 48.8302 10.7885 49.4635 10.3431 49.7999C10.1612 49.9373 9.94708 50.004 9.73495 50.004V50.003Z" fill="white" fill-opacity="0.65"/>
<path d="M16.6788 50.003C16.406 50.003 16.1353 49.8939 15.9363 49.6777C12.1805 45.6058 9.24601 40.953 7.45095 36.2224C5.21647 30.3351 4.68917 24.3277 5.88217 18.3678C7.45196 10.5269 13.9685 5.05081 21.7286 5.05081C25.7116 5.05081 29.5381 6.51251 32.504 9.16621C32.9202 9.53795 32.9555 10.1764 32.5828 10.5926C32.211 11.0087 31.5726 11.0441 31.1564 10.6713C28.5623 8.34898 25.2136 7.07012 21.7286 7.07012C18.4597 7.07012 15.2898 8.21463 12.8038 10.2925C10.2552 12.423 8.54597 15.3524 7.8631 18.7648C5.11748 32.4767 12.6725 43.1602 17.4212 48.3079C17.799 48.7181 17.7738 49.3575 17.3637 49.7353C17.1697 49.9141 16.9242 50.003 16.6788 50.003Z" fill="white"/>
<path d="M24.1935 50.0029C23.9662 50.0029 23.7369 49.9262 23.548 49.7696C21.664 48.2038 17.0344 44.0501 14.7282 39.3104C14.4838 38.8083 14.6929 38.2043 15.1949 37.9598C15.697 37.7153 16.3011 37.9244 16.5455 38.4265C17.2567 39.8872 19.4881 43.7662 24.841 48.216C25.2703 48.5725 25.3289 49.21 24.9723 49.6383C24.7723 49.8787 24.4844 50.0029 24.1955 50.0029H24.1935Z" fill="white" fill-opacity="0.35"/>
<path d="M34.8558 14.6473C34.5073 14.6473 34.1679 14.4664 33.98 14.1432C32.29 11.2218 29.6141 8.99641 26.4432 7.87614C25.9169 7.69027 25.6411 7.11347 25.827 6.58718C26.0128 6.06088 26.5896 5.78511 27.1159 5.97098C30.7394 7.25186 33.7982 9.79444 35.7286 13.132C36.0084 13.6149 35.8427 14.2331 35.3599 14.5119C35.2003 14.6038 35.0265 14.6483 34.8548 14.6483L34.8558 14.6473Z" fill="white"/>
<path d="M11.6271 22.2236C11.0695 22.2236 10.617 21.7711 10.617 21.2135C10.617 19.2598 11.1311 17.3385 12.1039 15.6566C12.3837 15.1737 13.0009 15.0091 13.4838 15.2879C13.9667 15.5677 14.1313 16.1849 13.8525 16.6677C13.0575 18.0426 12.6373 19.6144 12.6373 21.2125C12.6373 21.7701 12.1847 22.2226 11.6271 22.2226V22.2236Z" fill="white"/>
<path d="M24.245 42.3702C23.753 42.3702 23.3227 42.0106 23.247 41.5096C23.1641 40.958 23.5449 40.4438 24.0965 40.361C27.922 39.7882 31.6384 38.0174 34.5618 35.3738C37.5569 32.6656 39.5924 29.2361 40.447 25.4571C40.7621 24.0641 40.9217 22.6367 40.9217 21.2144C40.9217 10.6309 32.3121 2.02133 21.7287 2.02133C17.0476 2.02133 12.5392 3.72548 9.03397 6.8196C8.61577 7.18831 7.97734 7.14891 7.60863 6.73071C7.23993 6.3125 7.27932 5.67408 7.69753 5.30537C11.5715 1.88395 16.5556 0 21.7287 0C33.4253 0 42.9421 9.51673 42.9421 21.2134C42.9421 22.7852 42.7653 24.3631 42.4178 25.9016C41.4713 30.0887 39.2227 33.8818 35.9174 36.8719C32.6556 39.8216 28.6715 41.7187 24.3955 42.3591C24.345 42.3672 24.2945 42.3702 24.245 42.3702Z" fill="white" fill-opacity="0.65"/>
<path d="M28.4403 46.7776C27.9837 46.7776 27.5695 46.4664 27.4584 46.0028C27.3281 45.4603 27.6624 44.9148 28.2049 44.7845C31.0142 44.1107 33.7163 42.7804 36.0175 40.9368C36.4529 40.5883 37.0883 40.658 37.4378 41.0934C37.7863 41.5288 37.7166 42.1642 37.2812 42.5137C34.7487 44.5421 31.7738 46.0068 28.6766 46.7493C28.5979 46.7685 28.5181 46.7776 28.4403 46.7776Z" fill="white" fill-opacity="0.35"/>
<path d="M21.7287 37.376C18.5326 37.376 15.4415 36.4446 12.7908 34.6819C12.3261 34.3727 12.1999 33.7464 12.509 33.2818C12.8181 32.8171 13.4444 32.6908 13.9091 32.9999C16.2274 34.5414 18.9316 35.3566 21.7287 35.3566C29.5272 35.3566 35.871 29.0128 35.871 21.2144C35.871 20.6568 36.3235 20.2042 36.8811 20.2042C37.4388 20.2042 37.8913 20.6568 37.8913 21.2144C37.8913 30.126 30.6404 37.377 21.7287 37.377V37.376Z" fill="white" fill-opacity="0.35"/>
</svg>
