<svg width="360" height="77" viewBox="0 0 360 77" fill="none" xmlns="http://www.w3.org/2000/svg">
<path d="M33.6352 28.717L41.8305 17.3621H31.5814L28.5205 21.6078L33.6352 28.717Z" fill="#4328EB"/>
<path d="M28.5205 49.9859L31.5617 54.2514H41.8107L33.6154 42.8965L28.5205 49.9859Z" fill="#4328EB"/>
<path d="M15.1898 17.3621H5L18.3099 35.8064L5 54.2508H15.1898L28.5393 35.8064L15.1898 17.3621Z" fill="#111111"/>
<path d="M44.2588 35.5643C44.2588 47.0342 51.6844 54.6587 60.9664 54.6587C66.8008 54.6587 70.9777 51.8741 73.1656 48.6917V54.062H82.5139V17.3318H73.1656V22.5695C70.9777 19.5197 66.9334 16.7351 61.0327 16.7351C51.6844 16.7351 44.2588 24.0944 44.2588 35.5643ZM73.1656 35.6969C73.1656 42.6584 68.5246 46.5038 63.4195 46.5038C58.447 46.5038 53.7397 42.5258 53.7397 35.5643C53.7397 28.6028 58.447 24.89 63.4195 24.89C68.5246 24.89 73.1656 28.7354 73.1656 35.6969Z" fill="#4328EB"/>
<path d="M87.2036 35.6969C87.2036 47.2331 94.7618 54.6587 105.37 54.6587C114.519 54.6587 120.685 49.4873 122.674 41.6639H112.663C111.536 44.9789 109.149 46.7027 105.303 46.7027C100.132 46.7027 96.6845 42.8573 96.6845 35.6969C96.6845 28.5365 100.132 24.6248 105.303 24.6248C109.149 24.6248 111.602 26.6138 112.663 29.7299H122.674C120.685 21.5087 114.519 16.7351 105.37 16.7351C94.7618 16.7351 87.2036 24.1607 87.2036 35.6969Z" fill="#4328EB"/>
<path d="M125.098 35.5643C125.098 47.0342 132.524 54.6587 141.806 54.6587C147.64 54.6587 151.817 51.8741 154.005 48.6917V54.062H163.353V17.3318H154.005V22.5695C151.817 19.5197 147.773 16.7351 141.872 16.7351C132.524 16.7351 125.098 24.0944 125.098 35.5643ZM154.005 35.6969C154.005 42.6584 149.364 46.5038 144.259 46.5038C139.286 46.5038 134.579 42.5258 134.579 35.5643C134.579 28.6028 139.286 24.89 144.259 24.89C149.364 24.89 154.005 28.7354 154.005 35.6969Z" fill="#4328EB"/>
<path d="M168.043 35.5643C168.043 47.0342 175.469 54.6587 184.817 54.6587C190.585 54.6587 194.696 52.0067 196.883 48.6254V54.062H206.298V5H196.883V22.4369C194.364 18.9893 189.723 16.7351 184.883 16.7351C175.469 16.7351 168.043 24.0944 168.043 35.5643ZM196.95 35.6969C196.95 42.6584 192.309 46.5038 187.204 46.5038C182.231 46.5038 177.524 42.5258 177.524 35.5643C177.524 28.6028 182.231 24.89 187.204 24.89C192.309 24.89 196.95 28.7354 196.95 35.6969Z" fill="#4328EB"/>
<path d="M229.154 24.3596C233.928 24.3596 237.773 27.4094 237.906 32.2493H220.469C221.198 27.2105 224.712 24.3596 229.154 24.3596ZM246.591 42.5258H236.58C235.386 44.9789 233.198 46.9679 229.22 46.9679C224.579 46.9679 220.866 43.9181 220.402 38.4815H247.254C247.453 37.2881 247.519 36.0947 247.519 34.9013C247.519 23.9618 240.027 16.7351 229.419 16.7351C218.546 16.7351 210.988 24.0944 210.988 35.6969C210.988 47.2331 218.745 54.6587 229.419 54.6587C238.502 54.6587 244.602 49.2884 246.591 42.5258Z" fill="#4328EB"/>
<path d="M303.688 54.062H312.97V32.5145C312.97 22.3706 306.737 16.8014 297.919 16.8014C292.549 16.8014 287.709 19.6523 285.322 23.8292C282.803 19.2545 278.096 16.8014 272.394 16.8014C267.819 16.8014 263.908 18.7241 261.587 21.7739V17.3318H252.305V54.062H261.587V33.7742C261.587 27.9398 264.836 24.89 269.875 24.89C274.781 24.89 278.029 27.9398 278.029 33.7742V54.062H287.311V33.7742C287.311 27.9398 290.56 24.89 295.533 24.89C300.439 24.89 303.688 27.9398 303.688 33.7742V54.062Z" fill="#4328EB"/>
<path d="M335.435 42.9899L325.955 17.3318H315.545L330.264 53.1338L322.308 71.4326H332.187L354.928 17.3318H345.049L335.435 42.9899Z" fill="#4328EB"/>
</svg>
