<svg width="126" height="41" viewBox="0 0 126 41" fill="none" xmlns="http://www.w3.org/2000/svg">
<path d="M1.85156 18.1875C1.77344 17.75 1.75 17.2969 1.78125 16.8281C1.8125 16.3594 1.82812 15.9062 1.82812 15.4688C1.82812 15.0469 1.79688 14.6016 1.73438 14.1328C1.6875 13.6484 1.64062 13.1875 1.59375 12.75C1.5625 12.3125 1.54688 11.9141 1.54688 11.5547C1.5625 11.1797 1.61719 10.8906 1.71094 10.6875C1.83594 10.4531 1.99219 10.2734 2.17969 10.1484C2.36719 10.0078 2.54688 9.85156 2.71875 9.67969C2.92188 9.71094 3.10156 9.77344 3.25781 9.86719C3.42969 9.94531 3.57031 10.0547 3.67969 10.1953C3.80469 10.3203 3.89062 10.4531 3.9375 10.5938C4 10.7344 4.01562 10.875 3.98438 11.0156C4.375 11.25 4.6875 11.5703 4.92188 11.9766C5.17188 12.3672 5.35938 12.8047 5.48438 13.2891C5.625 13.7578 5.71875 14.2578 5.76562 14.7891C5.82812 15.3203 5.875 15.8438 5.90625 16.3594C5.95312 16.875 5.99219 17.3672 6.02344 17.8359C6.07031 18.2891 6.14844 18.6875 6.25781 19.0312C6.94531 18.0312 7.52344 17.1484 7.99219 16.3828C8.47656 15.6016 8.96094 14.8594 9.44531 14.1562C9.92969 13.4375 10.4688 12.7109 11.0625 11.9766C11.6719 11.2422 12.4453 10.4141 13.3828 9.49219C13.5859 9.52344 13.7422 9.5625 13.8516 9.60938C13.9609 9.65625 14.0703 9.70312 14.1797 9.75C14.2891 9.79688 14.4062 9.83594 14.5312 9.86719C14.6562 9.88281 14.8281 9.875 15.0469 9.84375C15.125 10.0312 15.1797 10.1719 15.2109 10.2656C15.2578 10.3438 15.2969 10.4219 15.3281 10.5C15.3594 10.5781 15.3984 10.6797 15.4453 10.8047C15.4922 10.9297 15.5625 11.1172 15.6562 11.3672C15.7031 11.4297 15.7188 11.5156 15.7031 11.625C15.7031 11.7188 15.6953 11.8047 15.6797 11.8828C15.6641 11.9609 15.6562 12.0234 15.6562 12.0703C15.6719 12.1172 15.7266 12.1172 15.8203 12.0703C15.7578 12.3359 15.6562 12.5781 15.5156 12.7969C15.375 13 15.3125 13.25 15.3281 13.5469C14.9062 14.1094 14.4375 14.6875 13.9219 15.2812C13.4062 15.875 12.8906 16.5 12.375 17.1562C11.8594 17.7969 11.3594 18.4688 10.875 19.1719C10.4062 19.8594 10.0078 20.5938 9.67969 21.375C9.58594 21.375 9.51562 21.3984 9.46875 21.4453C9.42188 21.4922 9.375 21.5469 9.32812 21.6094C9.29688 21.6719 9.25781 21.7344 9.21094 21.7969C9.17969 21.8594 9.11719 21.8906 9.02344 21.8906C8.99219 22.3906 8.80469 22.8672 8.46094 23.3203C8.13281 23.7578 7.79688 24.1328 7.45312 24.4453C7.48438 24.5703 7.5 24.6719 7.5 24.75C7.5 24.8281 7.49219 24.9062 7.47656 24.9844C7.46094 25.0625 7.44531 25.1484 7.42969 25.2422C7.42969 25.3203 7.4375 25.4219 7.45312 25.5469C7.3125 25.9219 7.125 26.2344 6.89062 26.4844C6.67188 26.7344 6.42969 26.9219 6.16406 27.0469C5.89844 27.1719 5.625 27.2188 5.34375 27.1875C5.0625 27.1719 4.79688 27.0781 4.54688 26.9062C4.4375 26.8438 4.34375 26.7578 4.26562 26.6484C4.1875 26.5391 4.10156 26.4375 4.00781 26.3438C3.92969 26.2344 3.84375 26.1406 3.75 26.0625C3.67188 25.9688 3.57031 25.9062 3.44531 25.875C3.47656 25.7188 3.47656 25.5547 3.44531 25.3828C3.42969 25.2109 3.39844 25.0547 3.35156 24.9141C3.30469 24.7734 3.25 24.6562 3.1875 24.5625C3.125 24.4688 3.0625 24.4219 3 24.4219C2.9375 24.0312 2.85156 23.6094 2.74219 23.1562C2.64844 22.6875 2.54688 22.2266 2.4375 21.7734C2.34375 21.3203 2.26562 20.875 2.20312 20.4375C2.14062 20 2.11719 19.5938 2.13281 19.2188C2.14844 19.0312 2.10938 18.8672 2.01562 18.7266C1.9375 18.5703 1.88281 18.3906 1.85156 18.1875ZM26.9531 19.9688C26.9375 20.1562 26.9531 20.3359 27 20.5078C27.0469 20.6797 27.1016 20.8516 27.1641 21.0234C27.2422 21.1797 27.3125 21.3438 27.375 21.5156C27.4375 21.6875 27.4844 21.8594 27.5156 22.0312C27.5469 22.25 27.5469 22.4922 27.5156 22.7578C27.4844 23.0078 27.4297 23.2578 27.3516 23.5078C27.2734 23.7422 27.1719 23.9609 27.0469 24.1641C26.9219 24.3516 26.7734 24.4922 26.6016 24.5859C26.3828 24.8672 26.1172 25.0859 25.8047 25.2422C25.4922 25.3984 25.2031 25.5859 24.9375 25.8047C24.7656 25.9141 24.5703 25.9922 24.3516 26.0391C24.1484 26.0859 23.9375 26.1328 23.7188 26.1797C23.5469 26.2734 23.3438 26.375 23.1094 26.4844C22.875 26.5781 22.6328 26.6719 22.3828 26.7656C22.1328 26.8438 21.8828 26.9062 21.6328 26.9531C21.3828 26.9844 21.1641 26.9922 20.9766 26.9766C20.5078 27.1484 20.0469 27.2578 19.5938 27.3047C19.1562 27.3672 18.6406 27.3359 18.0469 27.2109C17.4844 27.2891 16.9609 27.2656 16.4766 27.1406C16.0078 27.0156 15.5859 26.8203 15.2109 26.5547C14.8516 26.2734 14.5312 25.9453 14.25 25.5703C13.9844 25.1797 13.7656 24.7734 13.5938 24.3516C13.4688 23.4609 13.5 22.6562 13.6875 21.9375C13.875 21.2031 14.1406 20.5312 14.4844 19.9219C14.8438 19.2969 15.25 18.7266 15.7031 18.2109C16.1562 17.6797 16.5938 17.1641 17.0156 16.6641C17.1094 16.6953 17.1797 16.6953 17.2266 16.6641C17.2891 16.6172 17.3438 16.5625 17.3906 16.5C17.4375 16.4219 17.4844 16.3516 17.5312 16.2891C17.5938 16.2266 17.6641 16.1875 17.7422 16.1719C17.8516 15.9375 18.0078 15.7656 18.2109 15.6562C18.4297 15.5312 18.6016 15.3594 18.7266 15.1406C18.8672 15.1094 18.9844 15.0625 19.0781 15C19.1719 14.9375 19.2578 14.8672 19.3359 14.7891C19.4297 14.7109 19.5234 14.6406 19.6172 14.5781C19.7109 14.5 19.8203 14.4453 19.9453 14.4141V14.1562C20.2266 14.0312 20.4297 13.8906 20.5547 13.7344C20.6953 13.5625 20.8594 13.3594 21.0469 13.125C21.1875 13.1094 21.2969 13.1016 21.375 13.1016C21.4688 13.1016 21.6016 13.0859 21.7734 13.0547C21.8984 12.8359 22.0078 12.6719 22.1016 12.5625C22.2109 12.4531 22.3672 12.3359 22.5703 12.2109C22.7578 12.3047 22.9609 12.3672 23.1797 12.3984C23.4141 12.4297 23.6172 12.5312 23.7891 12.7031C23.8047 12.8594 23.8516 12.9844 23.9297 13.0781C24.0078 13.1562 24.0938 13.2344 24.1875 13.3125C24.2812 13.375 24.3672 13.4453 24.4453 13.5234C24.5391 13.6016 24.6016 13.7109 24.6328 13.8516C24.6953 13.8672 24.7344 13.8594 24.75 13.8281C24.7812 13.7969 24.8281 13.7891 24.8906 13.8047C24.9375 14.0234 24.9922 14.1719 25.0547 14.25C25.1172 14.3125 25.1797 14.4453 25.2422 14.6484C25.1641 14.8047 25.1016 14.9688 25.0547 15.1406C25.0234 15.2969 24.9297 15.4141 24.7734 15.4922C24.7578 15.6016 24.7891 15.6641 24.8672 15.6797C24.9453 15.6797 24.9922 15.7188 25.0078 15.7969C25.0234 15.9375 25 16.0391 24.9375 16.1016C25.3125 16.7109 25.6484 17.3594 25.9453 18.0469C26.2422 18.7188 26.5781 19.3594 26.9531 19.9688ZM24.0234 22.1953C24.0859 22.0234 24.1641 21.8828 24.2578 21.7734C24.3672 21.6641 24.4297 21.5 24.4453 21.2812C24.3672 21.1562 24.3203 21.0625 24.3047 21C24.2891 20.9219 24.2812 20.8047 24.2812 20.6484C23.9375 20.1641 23.6406 19.6484 23.3906 19.1016C23.1406 18.5391 22.8594 18.0156 22.5469 17.5312C22.5156 17.5938 22.4609 17.6562 22.3828 17.7188C22.3047 17.7812 22.2188 17.7656 22.125 17.6719C22.0938 17.7969 22.0391 17.8906 21.9609 17.9531C21.8828 18 21.7969 18.0234 21.7031 18.0234C21.6094 18.0078 21.5078 17.9844 21.3984 17.9531C21.3047 17.9062 21.2188 17.8516 21.1406 17.7891C20.6875 18.1484 20.2344 18.5 19.7812 18.8438C19.3281 19.1875 18.9219 19.5859 18.5625 20.0391C18.5 20.0703 18.4609 20.0859 18.4453 20.0859C18.4297 20.0703 18.3828 20.0781 18.3047 20.1094C18.1797 20.4062 18.0234 20.6797 17.8359 20.9297C17.6641 21.1641 17.4922 21.4062 17.3203 21.6562C17.1484 21.9062 17 22.1719 16.875 22.4531C16.75 22.7344 16.6797 23.0625 16.6641 23.4375C16.9297 23.6562 17.2422 23.7891 17.6016 23.8359C17.9609 23.8828 18.3281 23.8906 18.7031 23.8594C19.0938 23.8281 19.4688 23.7812 19.8281 23.7188C20.2031 23.6406 20.5469 23.6016 20.8594 23.6016C21.5156 23.4453 22.0781 23.2422 22.5469 22.9922C23.0156 22.7266 23.5078 22.4609 24.0234 22.1953ZM34.5703 26.7422C34.1328 26.8828 33.6562 27.0234 33.1406 27.1641C32.625 27.3047 32.1094 27.375 31.5938 27.375C30.8125 27.375 30.1953 27.1797 29.7422 26.7891C29.6641 26.6172 29.5938 26.5 29.5312 26.4375C29.4844 26.375 29.4375 26.3125 29.3906 26.25C29.3594 26.1719 29.3359 26.0703 29.3203 25.9453C29.1328 25.7266 28.9844 25.4766 28.875 25.1953C28.7656 24.8984 28.6875 24.6016 28.6406 24.3047C28.6094 23.9922 28.6016 23.6797 28.6172 23.3672C28.6484 23.0547 28.7031 22.7578 28.7812 22.4766C28.8125 22.4141 28.8281 22.3516 28.8281 22.2891C28.8438 22.2266 28.8594 22.1562 28.875 22.0781C28.9375 21.8281 29 21.5859 29.0625 21.3516C29.1406 21.1172 29.2422 20.9141 29.3672 20.7422C29.3047 20.6016 29.3047 20.4453 29.3672 20.2734C29.4297 20.1016 29.5 19.9453 29.5781 19.8047C29.7969 19.2109 29.9766 18.7109 30.1172 18.3047C30.2734 17.8828 30.4297 17.4688 30.5859 17.0625C30.8516 16.3594 31.1016 15.6641 31.3359 14.9766C31.5703 14.2891 31.7812 13.5469 31.9688 12.75C32.0938 12.6719 32.1875 12.6172 32.25 12.5859C32.3438 12.5547 32.4219 12.5312 32.4844 12.5156C32.7656 12.6562 33.0938 12.7969 33.4688 12.9375C33.8438 13.0625 34.1562 13.125 34.4062 13.125C34.5312 13.2031 34.6094 13.2656 34.6406 13.3125C34.6719 13.3438 34.7031 13.375 34.7344 13.4062C34.9062 13.6094 35.0547 13.8203 35.1797 14.0391C35.3047 14.2422 35.3438 14.5156 35.2969 14.8594C35.2031 15 35.1328 15.0703 35.0859 15.0703C35.0078 15.3828 34.9219 15.6484 34.8281 15.8672C34.75 16.0859 34.6641 16.3047 34.5703 16.5234C34.4609 16.7578 34.3594 16.9922 34.2656 17.2266C34.1719 17.4609 34.0938 17.75 34.0312 18.0938C33.9688 18.1719 33.9219 18.2422 33.8906 18.3047C33.875 18.3672 33.8516 18.4375 33.8203 18.5156C33.7891 18.5938 33.75 18.6797 33.7031 18.7734C33.6719 18.8516 33.6172 18.9219 33.5391 18.9844C33.4922 19.3906 33.4141 19.7188 33.3047 19.9688C33.2109 20.2188 33.1094 20.4688 33 20.7188C32.8125 21.1719 32.6406 21.625 32.4844 22.0781C32.3438 22.5312 32.2578 23.0469 32.2266 23.625C32.3047 23.5938 32.375 23.5781 32.4375 23.5781C32.5156 23.5781 32.5859 23.5781 32.6484 23.5781C32.7891 23.5781 32.9531 23.6016 33.1406 23.6484C33.6094 23.3984 34.1172 23.25 34.6641 23.2031C35.2266 23.1562 35.7812 23.125 36.3281 23.1094C36.5469 23.1094 36.7656 23.1094 36.9844 23.1094C37.2031 23.1094 37.4062 23.0938 37.5938 23.0625C37.7344 23.1406 37.8203 23.1875 37.8516 23.2031C37.8984 23.2031 37.9609 23.2031 38.0391 23.2031C38.1484 23.2031 38.2422 23.2109 38.3203 23.2266C38.5078 23.3984 38.6875 23.5234 38.8594 23.6016C39.0312 23.6797 39.2109 23.75 39.3984 23.8125C39.5703 23.875 39.7344 23.9453 39.8906 24.0234C40.0625 24.0859 40.2266 24.1797 40.3828 24.3047L40.5469 25.3125C40.6562 25.4531 40.7031 25.5469 40.6875 25.5938C40.6875 25.7188 40.6562 25.8125 40.5938 25.875L40.6406 26.1328C40.4062 26.1797 40.2422 26.2344 40.1484 26.2969C40.0703 26.3594 39.9922 26.4297 39.9141 26.5078C39.7891 26.5234 39.6953 26.5312 39.6328 26.5312C39.5859 26.5312 39.5391 26.5312 39.4922 26.5312C39.2734 26.5312 39.0078 26.5703 38.6953 26.6484C38.2734 26.5078 37.8359 26.4375 37.3828 26.4375C37.2109 26.4375 37.0312 26.4453 36.8438 26.4609C36.6562 26.4766 36.4688 26.4922 36.2812 26.5078C36.0938 26.5391 35.8984 26.5625 35.6953 26.5781C35.5078 26.5938 35.3125 26.6016 35.1094 26.6016L34.5703 26.7422ZM54.0469 13.6641C54.0781 14.0078 54.1328 14.3047 54.2109 14.5547C54.2891 14.8047 54.375 15.0469 54.4688 15.2812C54.5469 15.5 54.6172 15.7188 54.6797 15.9375C54.7578 16.1406 54.8125 16.3906 54.8438 16.6875C54.7188 17.0938 54.625 17.4688 54.5625 17.8125C54.5156 18.1562 54.4609 18.5156 54.3984 18.8906C54.1484 19.4375 53.9062 19.9219 53.6719 20.3438C53.4375 20.7656 53.25 21.1328 53.1094 21.4453C53.0312 21.5234 52.9609 21.6172 52.8984 21.7266C52.8516 21.8203 52.7969 21.9219 52.7344 22.0312C52.7031 22.0781 52.6641 22.1484 52.6172 22.2422C52.5703 22.3359 52.5312 22.3984 52.5 22.4297L52.0312 22.2656L51.9375 22.8516L51.6094 22.9453L51.375 23.2266C51.0781 23.7422 50.7656 24.1797 50.4375 24.5391C50.1094 24.8828 49.7344 25.1953 49.3125 25.4766C48.9062 25.7422 48.4375 25.9922 47.9062 26.2266C47.3906 26.4609 46.8047 26.7188 46.1484 27C45.8828 26.9688 45.6484 26.9531 45.4453 26.9531C45.2578 26.9375 45.0781 26.9219 44.9062 26.9062C44.6094 26.9062 44.2422 26.8828 43.8047 26.8359C43.7578 26.7109 43.6875 26.625 43.5938 26.5781C43.5 26.5312 43.4141 26.5078 43.3359 26.5078C43.0703 26.3828 42.8672 26.2031 42.7266 25.9688C42.6016 25.7188 42.4766 25.4531 42.3516 25.1719C42.2734 25 42.1953 24.8438 42.1172 24.7031C42.0391 24.5469 41.9531 24.3906 41.8594 24.2344L42.2578 24.1172L41.7422 23.5547C41.7109 23.5078 41.6719 23.4688 41.625 23.4375C41.5781 23.3906 41.5391 23.3438 41.5078 23.2969L41.4844 22.9219C41.4375 21.8438 41.4141 20.8594 41.4141 19.9688C41.4297 19.0625 41.5547 18.2578 41.7891 17.5547V17.2969C41.8359 16.9531 41.8828 16.6719 41.9297 16.4531C41.9766 16.2188 42.0156 16 42.0469 15.7969C42.0938 15.4531 42.1641 15.1328 42.2578 14.8359C42.4766 14.7891 42.6406 14.7031 42.75 14.5781C42.8594 14.4375 42.9531 14.3125 43.0312 14.2031C43.25 14.1875 43.3984 14.2188 43.4766 14.2969C43.5547 14.375 43.6328 14.5 43.7109 14.6719C43.7891 14.8125 43.8828 14.9688 43.9922 15.1406C44.1172 15.3125 44.2969 15.4453 44.5312 15.5391C44.5625 15.6641 44.6016 15.7969 44.6484 15.9375C44.7109 16.0625 44.7734 16.2031 44.8359 16.3594C44.9609 16.625 45.0703 16.9062 45.1641 17.2031C45.2734 17.4844 45.3359 17.7578 45.3516 18.0234C45.1953 18.3203 45.0703 18.6641 44.9766 19.0547C44.8984 19.4453 44.8438 19.8438 44.8125 20.25C44.7969 20.6406 44.8047 21.0234 44.8359 21.3984C44.8828 21.7578 44.9531 22.0625 45.0469 22.3125L45.1875 22.6172L45.5859 22.5703C46.0547 22.4453 46.4766 22.3125 46.8516 22.1719C47.2422 22.0156 47.6016 21.8359 47.9297 21.6328C48.2578 21.4297 48.5703 21.1953 48.8672 20.9297C49.1641 20.6484 49.4766 20.3281 49.8047 19.9688C50.1328 19.6094 50.4141 19.2031 50.6484 18.75C50.8984 18.2812 51.1016 17.7969 51.2578 17.2969C51.4297 16.7969 51.5547 16.3047 51.6328 15.8203C51.7266 15.3203 51.7891 14.8516 51.8203 14.4141C52.0859 14.3203 52.2188 14.1328 52.2188 13.8516L52.1719 13.5938C52.1094 13.5 52.1094 13.3906 52.1719 13.2656C52.2656 12.9688 52.4844 12.7422 52.8281 12.5859C53.0781 12.7422 53.2969 12.9141 53.4844 13.1016C53.6875 13.2891 53.875 13.4766 54.0469 13.6641ZM59.0625 22.7344C58.9219 22.7656 58.8203 22.8516 58.7578 22.9922C58.6953 23.1172 58.6328 23.25 58.5703 23.3906C58.5234 23.5312 58.4688 23.6641 58.4062 23.7891C58.3594 23.8984 58.2812 23.9531 58.1719 23.9531C58.1562 24.0781 58.1094 24.1875 58.0312 24.2812C57.9688 24.375 57.9062 24.4766 57.8438 24.5859C57.7812 24.6797 57.7344 24.7891 57.7031 24.9141C57.6719 25.0234 57.6875 25.1562 57.75 25.3125C57.625 25.4062 57.5469 25.5391 57.5156 25.7109C57.4844 25.8828 57.4453 26.0469 57.3984 26.2031C57.3672 26.3594 57.3047 26.4922 57.2109 26.6016C57.1172 26.7109 56.9453 26.7578 56.6953 26.7422C56.6484 26.8047 56.6406 26.8438 56.6719 26.8594C56.7031 26.875 56.7266 26.9297 56.7422 27.0234C56.5703 26.9922 56.4375 27 56.3438 27.0469C56.2656 27.1094 56.1641 27.1484 56.0391 27.1641C55.7422 27.0703 55.4922 26.9062 55.2891 26.6719C55.1016 26.4375 54.9297 26.1797 54.7734 25.8984C54.6328 25.6016 54.5 25.3047 54.375 25.0078C54.2656 24.7109 54.1562 24.4531 54.0469 24.2344C54.0938 24.0625 54.1016 23.8984 54.0703 23.7422C54.0391 23.5703 53.9844 23.4297 53.9062 23.3203C54.6719 21.6953 55.5078 19.9609 56.4141 18.1172C57.3203 16.2734 58.1797 14.4531 58.9922 12.6562C59.3516 12.7969 59.7031 12.9609 60.0469 13.1484C60.4062 13.3203 60.7266 13.5234 61.0078 13.7578C61.3047 13.9922 61.5547 14.2656 61.7578 14.5781C61.9609 14.875 62.0938 15.2109 62.1562 15.5859C62.125 15.6797 62.0859 15.7188 62.0391 15.7031C62.0078 15.6719 61.9766 15.6797 61.9453 15.7266C62.0078 15.8047 62.0391 15.8594 62.0391 15.8906C62.0547 15.9219 62.0547 15.9531 62.0391 15.9844C62.0391 16.0156 62.0391 16.0625 62.0391 16.125C62.0391 16.1719 62.0625 16.2422 62.1094 16.3359C62.0469 16.3203 62 16.3281 61.9688 16.3594C61.9531 16.3906 61.9062 16.3906 61.8281 16.3594C61.8906 16.5312 61.9062 16.6719 61.875 16.7812C61.8594 16.8906 61.8281 16.9922 61.7812 17.0859C61.7344 17.1641 61.6953 17.2578 61.6641 17.3672C61.6328 17.4609 61.6406 17.5859 61.6875 17.7422C61.6406 17.7422 61.6016 17.7578 61.5703 17.7891C61.5547 17.8047 61.5391 17.8281 61.5234 17.8594C61.5078 17.875 61.4844 17.8984 61.4531 17.9297C61.4375 17.9453 61.4062 17.9453 61.3594 17.9297C61.4062 18.2734 61.4219 18.6172 61.4062 18.9609C61.3906 19.3047 61.375 19.6562 61.3594 20.0156C61.3594 20.3594 61.3672 20.7266 61.3828 21.1172C61.3984 21.4922 61.4531 21.8828 61.5469 22.2891C62.1094 21.9609 62.5547 21.5391 62.8828 21.0234C63.2266 20.5078 63.5 19.9297 63.7031 19.2891C63.9219 18.6484 64.0859 17.9609 64.1953 17.2266C64.3047 16.4922 64.4219 15.7422 64.5469 14.9766C64.6875 14.8359 64.7969 14.6641 64.875 14.4609C64.9531 14.2578 65.0234 14.0469 65.0859 13.8281C65.1484 13.5938 65.2109 13.3672 65.2734 13.1484C65.3359 12.9141 65.4141 12.7031 65.5078 12.5156C65.7422 12.5469 65.9375 12.625 66.0938 12.75C66.2656 12.8594 66.4219 12.9844 66.5625 13.125C66.7031 13.25 66.8516 13.375 67.0078 13.5C67.1641 13.6094 67.3594 13.6797 67.5938 13.7109C67.7812 13.9766 67.9531 14.2344 68.1094 14.4844C68.2656 14.7344 68.3672 15 68.4141 15.2812C68.3359 15.4062 68.2734 15.5469 68.2266 15.7031C68.1953 15.8594 68.1562 16.0156 68.1094 16.1719C68.0625 16.3281 68 16.4766 67.9219 16.6172C67.8438 16.7422 67.7344 16.8516 67.5938 16.9453C67.5469 17.3516 67.4844 17.7266 67.4062 18.0703C67.3438 18.3984 67.2734 18.7266 67.1953 19.0547C67.1328 19.3828 67.0781 19.7266 67.0312 20.0859C66.9844 20.4297 66.9688 20.8125 66.9844 21.2344C66.8594 21.5938 66.7266 21.9766 66.5859 22.3828C66.4453 22.7891 66.3359 23.1562 66.2578 23.4844C66.0078 23.6875 65.8125 23.9297 65.6719 24.2109C65.5312 24.4922 65.3828 24.7734 65.2266 25.0547C65.1641 25.1172 65.125 25.1328 65.1094 25.1016C65.0938 25.0703 65.0391 25.0469 64.9453 25.0312C64.9609 25.0938 64.9609 25.1406 64.9453 25.1719C64.9297 25.2031 64.9062 25.2344 64.875 25.2656C64.8594 25.2812 64.8438 25.3125 64.8281 25.3594C64.8281 25.4062 64.8438 25.4688 64.875 25.5469C64.6562 25.6406 64.4609 25.7734 64.2891 25.9453C64.1172 26.1172 63.9297 26.2734 63.7266 26.4141C63.5391 26.5547 63.3047 26.6484 63.0234 26.6953C62.7578 26.7422 62.4062 26.6875 61.9688 26.5312C61.3281 26.0625 60.7578 25.5234 60.2578 24.9141C59.7734 24.3047 59.375 23.5781 59.0625 22.7344Z" fill="#B1237D"/>
<path d="M68.3203 13.7812C68.3047 13.6562 68.2734 13.5469 68.2266 13.4531C68.1953 13.3438 68.1562 13.2266 68.1094 13.1016C68.0312 12.9141 67.9609 12.7109 67.8984 12.4922C67.8359 12.2734 67.8047 12.0156 67.8047 11.7188C67.8359 11.5625 67.875 11.4531 67.9219 11.3906C67.9688 11.3125 68.0156 11.25 68.0625 11.2031L68.1562 10.7812H68.5078C68.6328 10.7969 68.7578 10.8047 68.8828 10.8047C69.0234 10.8047 69.1562 10.8047 69.2812 10.8047C69.875 10.8047 70.4844 10.7812 71.1094 10.7344C71.7344 10.6875 72.375 10.6328 73.0312 10.5703C73.75 10.4766 74.5234 10.4062 75.3516 10.3594C75.4297 10.1875 75.4766 10.0781 75.4922 10.0312C75.5234 9.98438 75.5547 9.92969 75.5859 9.86719L75.8438 9.72656C76.2031 9.71094 76.4531 9.75781 76.5938 9.86719C76.7344 9.96094 76.8438 10.0547 76.9219 10.1484C77.3281 10.1172 77.7422 10.0781 78.1641 10.0312C78.5859 9.96875 79.0234 9.90625 79.4766 9.84375C80.1016 9.76562 80.7344 9.6875 81.375 9.60938C82.0156 9.53125 82.6406 9.49219 83.25 9.49219C83.5156 9.49219 83.7656 9.5 84 9.51562C84.2344 9.53125 84.4609 9.55469 84.6797 9.58594L84.9609 9.79688C85.0234 9.90625 85.1016 10.0078 85.1953 10.1016C85.2891 10.1953 85.3984 10.2891 85.5234 10.3828C85.7578 10.5703 85.9844 10.8047 86.2031 11.0859C86.4375 11.3672 86.5234 11.7812 86.4609 12.3281L86.3438 12.5625C86.2812 12.625 86.2031 12.6875 86.1094 12.75L85.875 13.0547H85.6172C85.4609 13.0547 85.3438 13.0703 85.2656 13.1016C85.1875 13.1172 85.0938 13.1484 84.9844 13.1953C84.9219 13.2266 84.8516 13.2578 84.7734 13.2891C84.6953 13.3047 84.6094 13.3281 84.5156 13.3594C84.3438 13.3438 84.2109 13.3359 84.1172 13.3359C84.0234 13.3359 83.9141 13.3359 83.7891 13.3359C83.3203 13.3359 82.8125 13.3672 82.2656 13.4297C81.7188 13.4922 81.1875 13.5625 80.6719 13.6406C80.2969 13.6875 79.9375 13.7344 79.5938 13.7812C79.25 13.8125 78.9375 13.8438 78.6562 13.875C78.5 14.2812 78.3594 14.6406 78.2344 14.9531C78.1094 15.2656 77.9766 15.5781 77.8359 15.8906C77.6953 16.2031 77.5625 16.5234 77.4375 16.8516C77.3125 17.1641 77.1953 17.5156 77.0859 17.9062C76.8984 18.1875 76.7422 18.4609 76.6172 18.7266C76.4922 18.9766 76.3906 19.2656 76.3125 19.5938C76.0781 19.8594 75.9062 20.1484 75.7969 20.4609C75.7031 20.7734 75.6172 21.0391 75.5391 21.2578L75.4453 21.6094C75.3359 21.7188 75.2656 21.8047 75.2344 21.8672C75.2188 21.9297 75.1797 22 75.1172 22.0781C75.0703 22.2812 75.0078 22.4766 74.9297 22.6641C74.8984 22.7422 74.8672 22.8281 74.8359 22.9219C74.8047 23 74.7969 23.0625 74.8125 23.1094C74.7812 23.2812 74.7344 23.4141 74.6719 23.5078C74.6719 23.6016 74.6641 23.6953 74.6484 23.7891C74.6328 23.8828 74.6172 23.9766 74.6016 24.0703C74.5703 24.1797 74.5469 24.2812 74.5312 24.375C74.5156 24.4531 74.5234 24.5312 74.5547 24.6094C74.6016 24.6719 74.6484 24.7344 74.6953 24.7969C74.7422 24.8594 74.7812 24.9375 74.8125 25.0312C74.8438 25.0625 74.8828 25.0859 74.9297 25.1016C74.9766 25.1172 75.0156 25.1406 75.0469 25.1719C75.1719 25.2812 75.2891 25.3438 75.3984 25.3594L75.6328 25.6406C75.7266 26.2031 75.6406 26.6406 75.375 26.9531C75.0938 27.3125 74.625 27.4922 73.9688 27.4922L73.6406 27.4688C73.5312 27.3594 73.4688 27.2891 73.4531 27.2578C73.3125 27.1953 73.1953 27.1406 73.1016 27.0938C73.0078 27.0625 72.9219 26.9922 72.8438 26.8828C72.8125 26.8516 72.7734 26.8359 72.7266 26.8359C72.6797 26.8203 72.6406 26.7969 72.6094 26.7656C72.4531 26.7188 72.3281 26.6641 72.2344 26.6016L71.9766 26.4609C71.9922 26.3047 72 26.1953 72 26.1328C71.875 25.9609 71.7734 25.7734 71.6953 25.5703C71.6328 25.3672 71.5781 25.1562 71.5312 24.9375C71.4844 24.7656 71.4375 24.6094 71.3906 24.4688C71.3594 24.3281 71.3047 24.2031 71.2266 24.0938C71.1953 23 71.2969 22.0859 71.5312 21.3516C71.7656 20.6016 72.0234 19.875 72.3047 19.1719C72.4609 18.7969 72.6094 18.4141 72.75 18.0234C72.8906 17.6328 73.0156 17.2344 73.125 16.8281L73.3828 16.5703C73.4922 16.4766 73.5625 16.4219 73.5938 16.4062C73.5938 16.2031 73.6328 16.0078 73.7109 15.8203C73.7891 15.6172 73.875 15.4141 73.9688 15.2109C74.0312 15.0859 74.0859 14.9609 74.1328 14.8359C74.1953 14.7109 74.2344 14.6016 74.25 14.5078C74.1406 14.5078 74.0391 14.5156 73.9453 14.5312C73.8672 14.5312 73.7812 14.5391 73.6875 14.5547C73.4844 14.6016 73.2891 14.625 73.1016 14.625C72.9609 14.625 72.8594 14.6172 72.7969 14.6016C72.6719 14.6641 72.5547 14.7031 72.4453 14.7188C72.3359 14.7188 72.2266 14.7188 72.1172 14.7188H71.8359H71.5547C71.3672 14.7188 71.2188 14.7422 71.1094 14.7891C70.8906 14.7891 70.75 14.7891 70.6875 14.7891C70.625 14.7891 70.5547 14.7891 70.4766 14.7891H70.1953H69.9141C69.7891 14.7891 69.6484 14.7812 69.4922 14.7656C69.3359 14.7344 69.1719 14.6719 69 14.5781L68.8359 14.3906C68.7422 14.2188 68.6562 14.125 68.5781 14.1094L68.3203 14.0391V13.7812ZM87.3516 25.3594C87.4297 25.8281 87.3984 26.1953 87.2578 26.4609C87.1328 26.7266 86.9453 26.9219 86.6953 27.0469C86.4609 27.1875 86.1875 27.2656 85.875 27.2812C85.5625 27.2969 85.2656 27.2812 84.9844 27.2344C84.8281 27.0156 84.6875 26.7422 84.5625 26.4141C84.4375 26.0859 84.3203 25.75 84.2109 25.4062C84.1016 25.0469 84 24.6953 83.9062 24.3516C83.8281 24.0078 83.7578 23.7031 83.6953 23.4375C83.7734 23.25 83.8203 23.0391 83.8359 22.8047C83.8672 22.5547 83.8828 22.3047 83.8828 22.0547C83.8984 21.8047 83.9062 21.5547 83.9062 21.3047C83.9219 21.0391 83.9453 20.7891 83.9766 20.5547C84.0859 19.8984 84.2422 19.2734 84.4453 18.6797C84.6641 18.0859 84.8359 17.4688 84.9609 16.8281C84.9922 16.6875 84.9766 16.5547 84.9141 16.4297C84.8672 16.3047 84.8594 16.1875 84.8906 16.0781C84.9062 16.0156 84.9531 15.9766 85.0312 15.9609C85.1094 15.9297 85.1562 15.875 85.1719 15.7969C85.2188 15.625 85.2266 15.4844 85.1953 15.375C85.1797 15.2656 85.2109 15.1328 85.2891 14.9766C85.3672 14.8516 85.4609 14.6719 85.5703 14.4375C85.6953 14.1875 85.7422 13.9297 85.7109 13.6641C85.8516 13.5703 85.9844 13.4609 86.1094 13.3359C86.2344 13.2109 86.3594 13.1016 86.4844 13.0078C86.625 12.8984 86.7734 12.8047 86.9297 12.7266C87.1016 12.6484 87.3047 12.6094 87.5391 12.6094C87.6641 12.7656 87.7422 12.9375 87.7734 13.125C87.8203 13.3125 87.8594 13.5 87.8906 13.6875C87.9375 13.875 88 14.0547 88.0781 14.2266C88.1562 14.3828 88.2891 14.5078 88.4766 14.6016C88.4766 14.7266 88.4766 14.8828 88.4766 15.0703C88.4766 15.2578 88.4844 15.4453 88.5 15.6328C88.5156 15.8047 88.5469 15.9688 88.5938 16.125C88.6562 16.2656 88.75 16.3594 88.875 16.4062C88.5938 17.1562 88.3281 17.8984 88.0781 18.6328C87.8438 19.3672 87.6484 20.1094 87.4922 20.8594C87.3359 21.5938 87.2344 22.3359 87.1875 23.0859C87.1562 23.8359 87.2109 24.5938 87.3516 25.3594ZM106.289 26.5781C106.133 26.6562 105.984 26.7266 105.844 26.7891C105.719 26.8516 105.57 26.8828 105.398 26.8828C104.789 26.4297 104.469 25.6406 104.438 24.5156C104.422 23.3906 104.664 21.9609 105.164 20.2266C105.242 20.1797 105.281 20.0859 105.281 19.9453L105.07 19.7109C105.008 19.7109 104.945 19.7188 104.883 19.7344C104.836 19.75 104.797 19.8047 104.766 19.8984C104.359 20.1953 103.914 20.5078 103.43 20.8359C102.945 21.1484 102.438 21.4453 101.906 21.7266C101.391 21.9922 100.859 22.2109 100.312 22.3828C99.7812 22.5547 99.2578 22.6406 98.7422 22.6406C97.4297 22.6406 96.4453 21.9766 95.7891 20.6484L95.6016 20.2969L95.4141 20.6016C95.3672 20.6641 95.2969 20.7969 95.2031 21C95.1094 21.1875 95.0156 21.4062 94.9219 21.6562C94.8281 21.9062 94.7422 22.1641 94.6641 22.4297C94.6016 22.6797 94.5781 22.8984 94.5938 23.0859C94.4531 23.2266 94.3047 23.3906 94.1484 23.5781C93.9922 23.7656 93.875 23.9766 93.7969 24.2109C93.7656 24.3359 93.7812 24.4531 93.8438 24.5625C93.8125 24.7031 93.7422 24.8125 93.6328 24.8906C93.5703 24.9688 93.5 25.0469 93.4219 25.125C93.3594 25.1875 93.3047 25.2578 93.2578 25.3359C93.2266 25.4141 93.2031 25.4922 93.1875 25.5703C93.1875 25.6484 93.1797 25.7266 93.1641 25.8047C93.1641 25.9141 93.1484 26.0156 93.1172 26.1094C92.8516 26.6562 92.6406 27.0078 92.4844 27.1641C92.3281 27.3359 92.1172 27.4219 91.8516 27.4219C91.7266 27.4219 91.5234 27.3984 91.2422 27.3516C91.0391 27.1328 90.8516 26.8359 90.6797 26.4609C90.5234 26.0703 90.3984 25.6562 90.3047 25.2188C90.2266 24.7812 90.1875 24.3438 90.1875 23.9062C90.2031 23.4531 90.2812 23.0625 90.4219 22.7344C90.4219 22.7188 90.4844 22.5625 90.6094 22.2656C90.7344 21.9688 90.8906 21.5859 91.0781 21.1172C91.2812 20.6484 91.5078 20.1328 91.7578 19.5703C92.0078 18.9922 92.2578 18.4375 92.5078 17.9062C92.7578 17.3594 92.9922 16.8594 93.2109 16.4062C93.4453 15.9531 93.6406 15.6094 93.7969 15.375C93.9219 15.1875 94.0312 15.0156 94.125 14.8594C94.2344 14.6875 94.3359 14.5234 94.4297 14.3672C94.7109 13.8828 94.9766 13.4844 95.2266 13.1719C95.4922 12.8438 95.875 12.5859 96.375 12.3984C96.7188 12.5391 96.9688 12.7031 97.125 12.8906L97.1719 13.1484C97.2344 13.3047 97.3281 13.3828 97.4531 13.3828C97.625 13.4297 97.7656 13.4766 97.875 13.5234C98 13.5547 98.1328 13.5859 98.2734 13.6172C98.3828 13.7422 98.4844 13.8906 98.5781 14.0625C98.7031 14.25 98.8203 14.4375 98.9297 14.625C99.0547 14.7969 99.1484 14.9766 99.2109 15.1641C99.2891 15.3359 99.3281 15.5156 99.3281 15.7031C99.3438 15.8906 99.3125 16.0859 99.2344 16.2891L99.2578 16.5234C99.3359 16.6641 99.3516 16.8594 99.3047 17.1094C99.2891 17.2188 99.2812 17.3359 99.2812 17.4609C99.2812 17.5703 99.2969 17.6953 99.3281 17.8359C99.6094 18.0547 99.8594 18.1641 100.078 18.1641C100.328 18.1641 100.555 18.1094 100.758 18C100.977 17.875 101.18 17.75 101.367 17.625C101.492 17.5312 101.617 17.4531 101.742 17.3906C101.867 17.3125 101.992 17.2656 102.117 17.25C102.398 16.9844 102.648 16.75 102.867 16.5469C103.102 16.3438 103.344 16.1406 103.594 15.9375C104.062 15.5625 104.516 15.1562 104.953 14.7188C105.391 14.2812 105.742 13.7344 106.008 13.0781C106.164 12.9844 106.328 12.9375 106.5 12.9375C106.672 12.9375 106.852 12.9766 107.039 13.0547C107.227 13.1328 107.406 13.2109 107.578 13.2891C107.625 13.3203 107.664 13.3438 107.695 13.3594C107.742 13.375 107.781 13.3906 107.812 13.4062C107.812 13.5625 107.875 13.6953 108 13.8047C108.062 13.8516 108.102 13.8828 108.117 13.8984C108.133 13.9141 108.156 13.9297 108.188 13.9453C108.422 14.0703 108.57 14.1953 108.633 14.3203C108.742 14.6797 108.938 14.9531 109.219 15.1406C109.188 15.2969 109.188 15.4453 109.219 15.5859C109.266 15.7109 109.32 15.8438 109.383 15.9844C109.398 16.0312 109.414 16.0781 109.43 16.125C109.445 16.1719 109.469 16.2266 109.5 16.2891L109.055 16.2422L109.125 16.6875C109.156 16.9062 109.133 17.1484 109.055 17.4141C108.992 17.6797 108.914 17.8906 108.82 18.0469C108.836 18.4531 108.844 18.7734 108.844 19.0078C108.859 19.2266 108.852 19.4375 108.82 19.6406C108.789 19.8281 108.742 20.0078 108.68 20.1797C108.633 20.3516 108.562 20.5391 108.469 20.7422C108.531 21.7422 108.414 22.6562 108.117 23.4844C107.836 24.2969 107.539 25.0625 107.227 25.7812C107.195 25.8594 107.156 25.9375 107.109 26.0156C107.078 26.0938 107.047 26.1719 107.016 26.25C106.875 26.2969 106.75 26.3516 106.641 26.4141C106.531 26.4609 106.414 26.5156 106.289 26.5781ZM122.695 13.8047C122.711 13.9141 122.711 14 122.695 14.0625C122.695 14.1094 122.688 14.1562 122.672 14.2031C122.672 14.25 122.672 14.3047 122.672 14.3672C122.672 14.4141 122.688 14.4922 122.719 14.6016C122.391 15.1328 122.008 15.5 121.57 15.7031C121.148 15.8906 120.688 16.0312 120.188 16.125C119.688 16.2031 119.172 16.2891 118.641 16.3828C118.125 16.4766 117.609 16.6797 117.094 16.9922C116.891 16.9141 116.703 16.9141 116.531 16.9922C116.375 17.0703 116.141 17.0938 115.828 17.0625C115.734 17.1562 115.617 17.2266 115.477 17.2734C115.336 17.3047 115.195 17.3438 115.055 17.3906C115.117 17.5312 115.141 17.6797 115.125 17.8359C115.125 17.9766 115.148 18.0938 115.195 18.1875C115.742 18.2344 116.344 18.2266 117 18.1641C117.672 18.1016 118.328 18.0625 118.969 18.0469C118.984 18.125 118.977 18.1797 118.945 18.2109C118.914 18.2266 118.906 18.2656 118.922 18.3281C119.031 18.4062 119.141 18.5078 119.25 18.6328C119.359 18.7422 119.469 18.8516 119.578 18.9609C119.688 19.0703 119.797 19.1641 119.906 19.2422C120.031 19.3047 120.172 19.3281 120.328 19.3125C120.391 19.4375 120.43 19.5781 120.445 19.7344C120.477 19.875 120.461 20.0234 120.398 20.1797C120.148 20.3516 119.898 20.5312 119.648 20.7188C119.398 20.8906 119.133 21.0469 118.852 21.1875C118.586 21.3281 118.297 21.4453 117.984 21.5391C117.688 21.6172 117.352 21.6484 116.977 21.6328C116.898 21.6328 116.836 21.6328 116.789 21.6328C116.758 21.6328 116.711 21.6094 116.648 21.5625C116.523 21.6406 116.344 21.6641 116.109 21.6328C115.891 21.6016 115.719 21.625 115.594 21.7031C115.422 21.625 115.211 21.5938 114.961 21.6094C114.727 21.6094 114.516 21.5781 114.328 21.5156C114.078 21.8438 113.852 22.1953 113.648 22.5703C113.445 22.9453 113.266 23.3438 113.109 23.7656C113.641 23.8438 114.078 23.875 114.422 23.8594C114.781 23.8438 115.117 23.8203 115.43 23.7891C115.742 23.7422 116.062 23.7031 116.391 23.6719C116.719 23.625 117.133 23.6094 117.633 23.625C117.945 23.4531 118.312 23.3438 118.734 23.2969C119.172 23.2344 119.57 23.1406 119.93 23.0156C120.055 23.0625 120.164 23.1484 120.258 23.2734C120.352 23.3828 120.438 23.4922 120.516 23.6016C120.609 23.6953 120.703 23.7812 120.797 23.8594C120.891 23.9375 121.008 23.9688 121.148 23.9531C121.211 24.0156 121.25 24.0938 121.266 24.1875C121.297 24.2656 121.32 24.3438 121.336 24.4219C121.352 24.5 121.375 24.5703 121.406 24.6328C121.453 24.6797 121.523 24.6953 121.617 24.6797C121.383 25.1953 121.109 25.5938 120.797 25.875C120.5 26.1406 120.156 26.3438 119.766 26.4844C119.375 26.625 118.938 26.7344 118.453 26.8125C117.984 26.8906 117.461 26.9844 116.883 27.0938C116.742 27.125 116.625 27.1172 116.531 27.0703C116.438 27.0391 116.328 27.0234 116.203 27.0234C115.844 27.1016 115.414 27.1719 114.914 27.2344C114.414 27.2969 113.906 27.3203 113.391 27.3047C112.875 27.2891 112.383 27.2188 111.914 27.0938C111.445 26.9844 111.062 26.7812 110.766 26.4844C110.641 26.375 110.555 26.25 110.508 26.1094C110.477 25.9531 110.375 25.8359 110.203 25.7578C110.188 25.5547 110.156 25.3281 110.109 25.0781C110.062 24.8281 110.016 24.5703 109.969 24.3047C109.922 24.0234 109.883 23.75 109.852 23.4844C109.836 23.2188 109.852 22.9766 109.898 22.7578C109.945 22.5234 110.039 22.3125 110.18 22.125C110.336 21.9375 110.391 21.7344 110.344 21.5156C110.422 21.5 110.469 21.4609 110.484 21.3984C110.5 21.3203 110.562 21.2891 110.672 21.3047C110.766 21.0234 110.867 20.7578 110.977 20.5078C111.086 20.2578 111.195 20.0156 111.305 19.7812C111.43 19.5469 111.547 19.3125 111.656 19.0781C111.781 18.8281 111.898 18.5547 112.008 18.2578C111.789 18.0547 111.625 17.8359 111.516 17.6016C111.422 17.3516 111.352 17.1094 111.305 16.875C111.258 16.625 111.219 16.375 111.188 16.125C111.156 15.8594 111.102 15.5938 111.023 15.3281C111.18 15.0938 111.367 14.9062 111.586 14.7656C111.82 14.6094 112.07 14.4844 112.336 14.3906C112.602 14.2969 112.891 14.2188 113.203 14.1562C113.516 14.0938 113.844 14.0234 114.188 13.9453C114.812 13.7422 115.367 13.5859 115.852 13.4766C116.352 13.3672 116.836 13.2812 117.305 13.2188C117.789 13.1406 118.289 13.0703 118.805 13.0078C119.32 12.9453 119.906 12.8516 120.562 12.7266C120.703 12.8672 120.836 12.9375 120.961 12.9375C121.023 12.7969 121.094 12.7578 121.172 12.8203C121.266 12.8672 121.305 12.8203 121.289 12.6797C121.445 12.9453 121.641 13.1719 121.875 13.3594C122.125 13.5312 122.398 13.6797 122.695 13.8047Z" fill="#8948A9"/>
<circle cx="90.25" cy="5.25" r="5.25" fill="#FF4021"/>
</svg>
